<?xml version="1.0" encoding="UTF-8"?>
<svg width="1127px" height="716px" viewBox="0 0 1127 716" version="1.1" xmlns="http://www.w3.org/2000/svg" xmlns:xlink="http://www.w3.org/1999/xlink">
    <!-- Generator: Sketch 52.1 (67048) - http://www.bohemiancoding.com/sketch -->
    <title>bjor_sketch</title>
    <desc>Created with Sketch.</desc>
    <g id="Page-1" stroke="none" stroke-width="1" fill="none" fill-rule="evenodd">
        <path d="M364.54,439.47 C383.41,403.27 404.3,366.03 425.8,330.67 C437.62,311.24 449.41,291.54 460.71,272.35 C471.81,253.5 486.64,229 495.15,209.15" id="Path" stroke="#0E3E32" stroke-width="6" stroke-linejoin="round"></path>
        <path d="M183.34,120 C222,129.93 257.62,139.39 290.93,147.83 C316.46,154.3 317.93,155.36 344.28,162.89 C370.63,170.42 394.22,177.42 420.21,185.49 C456.61,196.78 467.28,198.67 496.83,206.49" id="Path" stroke="#0E3E32" stroke-width="6" stroke-linejoin="round"></path>
        <path d="M752.14,256 C748.19,216 747.2,200.27 742.27,168.21" id="Path" stroke="#0E3E32" stroke-width="6" stroke-linejoin="round"></path>
        <path d="M496.16,207.62 C546.46,201.21 569.63,196.15 605.16,190.85 C623.39,188.14 654.97,182.5 673.22,180 C689.78,177.74 708.22,175.56 741.29,169.15" id="Path" stroke="#0E3E32" stroke-width="6" stroke-linejoin="round"></path>
        <path d="M496,208.75 C570.2,216.47 641.23,223.75 724.86,231.7" id="Path" stroke="#0E3E32" stroke-width="6" stroke-linejoin="round"></path>
        <path d="M725.21,232.87 C734.42,240.58 746.7,250.81 754.89,258.73" id="Path" stroke="#0E3E32" stroke-width="6" stroke-linejoin="round"></path>
        <path d="M134,144.48 C133.933333,139.626667 133.873333,134.85 133.82,130.15" id="Path" stroke="#0E3E32" stroke-width="6" stroke-linejoin="round"></path>
        <path d="M133.46,438.79 C132.28,419.61 133.18,325.3 134.2,302.51 C136.06,260.97 134.98,208.75 134.2,161" id="Path" stroke="#0E3E32" stroke-width="6" stroke-linejoin="round"></path>
        <path d="M53.39,116.64 C53.17,111.16 52.93,107.64 52.68,102.17 C51.36,72.76 50.81,49.46 50.81,20.17" id="Path" stroke="#0E3E32" stroke-width="6" stroke-linejoin="round"></path>
        <path d="M56.72,240.6 C56.3,208.36 55.51,176.04 54.35,143.47" id="Path" stroke="#0E3E32" stroke-width="6" stroke-linejoin="round"></path>
        <path d="M54.94,432.47 C55.45,416.06 55.88,393.08 56.2,376.78" id="Path" stroke="#0E3E32" stroke-width="6" stroke-linejoin="round"></path>
        <path d="M71.61,14.83 C77.51,12.62 97.92,7.02 108.37,3.53" id="Path" stroke="#0E3E32" stroke-width="6" stroke-linejoin="round"></path>
        <path d="M50.51,19.54 C53.85,18.33 54.76,17.87 58.1,16.81" id="Path" stroke="#0E3E32" stroke-width="6" stroke-linejoin="round"></path>
        <path d="M280.81,8.69 C283.39,8.87666667 285.986667,9.08 288.6,9.3 C330.84,12.85 343.89,13.14 383.01,16.4 C418.37,19.34 456.52,21.4 485.57,24.2 C522.48,27.75 552.82,30.99 586.36,33.79 C628.95,37.33 630.69,36.52 676.86,39.46 C685.01,39.98 709.86,40.88 737.55,43.01 C737.55,79.57 740.04,98.91 740.04,106.9 C740.04,136.36 740.31,141.64 742.27,167.18" id="Path" stroke="#0E3E32" stroke-width="6" stroke-linejoin="round"></path>
        <path d="M755.15,260.09 C755.15,274.75 754.74,290.48 754.57,307.79" id="Path" stroke="#0E3E32" stroke-width="6" stroke-linejoin="round"></path>
        <path d="M762.08,378 C762.08,382 762.08,386 762.08,389.41" id="Path" stroke="#0E3E32" stroke-width="6" stroke-linejoin="round"></path>
        <path d="M528.58,439.4 C528.58,413.9 527.42,375.4 528.71,350.08 C551.56,348.54 568.71,348.81 587.71,348.3 C611.42,347.66 624.06,348.05 645.41,347.48 C688.1,346.34 720.3,345.48 758.72,347.35" id="Path" stroke="#0E3E32" stroke-width="6" stroke-linejoin="round"></path>
        <path d="M608,531.49 C612.64,528.19 617.32,524.7 622.05,520.85" id="Path" stroke="#0E3E32" stroke-width="6" stroke-linejoin="round"></path>
        <path d="M380.44,685.39 C407.33,666.39 436.8,649.27 463.44,630.39 C500.15,604.39 531.57,587.3 567.05,559.94 C570.24,557.48 580.05,550.4 583.22,548.15" id="Path" stroke="#0E3E32" stroke-width="6" stroke-linejoin="round"></path>
        <path d="M725.6,233.65 C724.04,248.82 723.42,276.59 722.95,287.65 C722.24,304.25 721.71,313.39 720.95,344.5" id="Path" stroke="#0E3E32" stroke-width="6" stroke-linejoin="round"></path>
        <path d="M31.87,606.16 C34.73,624.52 33.87,646.16 33.23,660.94 C32.63,674.26 34.23,688.89 33.73,711.34" id="Path" stroke="#0E3E32" stroke-width="6" stroke-linejoin="round"></path>
        <path d="M3.76,614.94 C15.38,612.48 19.76,610.18 28.26,607.94" id="Path" stroke="#0E3E32" stroke-width="6" stroke-linejoin="round"></path>
        <path d="M3.9,603.16 C13.11,604.58 20.99,605.09 31.73,606.56" id="Path" stroke="#0E3E32" stroke-width="6" stroke-linejoin="round"></path>
        <path d="M376,685.85 C377.256628,685.847278 378.512265,685.920746 379.76,686.07" id="Path" stroke="#0E3E32" stroke-width="6" stroke-linejoin="round"></path>
        <path d="M331.22,686.13 C343.04,686.06 347.52,685.53 350.52,685.57 C353.82,685.57 356.64,685.64 359.13,685.65" id="Path" stroke="#0E3E32" stroke-width="6" stroke-linejoin="round"></path>
        <path d="M33.89,684.53 C41.44,685.65 58.1,684.74 64.55,685.29 C73.55,686.07 86.66,686.16 95.97,686.29 C114.6,686.46 122.35,687.29 140.71,687.29 C150.15,687.29 182.98,687.54 192.6,687.29 C213.1,686.76 237.6,685.41 263.05,685.86 C272.05,686.02 292.51,685.86 310.79,685.73" id="Path" stroke="#0E3E32" stroke-width="6" stroke-linejoin="round"></path>
        <path d="M340.16,464.53 C400.26,463.26 462.16,462.08 523.85,462.12 C553.41,462.12 578.34,461.12 612.1,460.67" id="Path" stroke="#0E3E32" stroke-width="6" stroke-linejoin="round"></path>
        <path d="M5.4,463.56 C24.4,465.56 41.69,463.56 60.4,464.56 C81.13,465.64 109.08,465.56 129.85,466 C175.66,467 200.31,467.24 245.59,466.49 C266.92,466.13 292.04,465.71 312.87,465.28" id="Path" stroke="#0E3E32" stroke-width="6" stroke-linejoin="round"></path>
        <path d="M779.67,412.22 C794.93,412.22 800.08,413.32 814.72,413.32 L865.65,413.32 C887.06,413.32 943.96,412.77 971.89,412.22" id="Path" stroke="#0E3E32" stroke-width="6" stroke-linejoin="round"></path>
        <path d="M795.56,415 C818.01,498.79 830.56,580.47 853.56,663.66 C856.83,675.44 859.35,687.18 863.51,698.75 C864.74,702.16 865.99,705.51 867.14,708.9" id="Path" stroke="#0E3E32" stroke-width="6" stroke-linejoin="round"></path>
        <path d="M846.17,345.5 C847.09,366.25 847.27,388.59 848,409.4" id="Path" stroke="#0E3E32" stroke-width="6" stroke-linejoin="round"></path>
        <path d="M837,412.33 C837.32,402.98 837.77,394.53 837,385.33 C836.37,377.78 837,368.9 836.64,360.86" id="Path" stroke="#0E3E32" stroke-width="6" stroke-linejoin="round"></path>
        <path d="M837,360.83 C840.65,355.36 844.21,350.07 845.4,344.4" id="Path" stroke="#0E3E32" stroke-width="6" stroke-linejoin="round"></path>
        <path d="M846.54,343.67 C853.46,343.67 859.7,343.3 866.62,343.3 C876.48,343.3 880.86,343.67 889.62,343.67" id="Path" stroke="#0E3E32" stroke-width="6" stroke-linejoin="round"></path>
        <path d="M528.78,439.91 C545.78,440.18 554.66,439.49 574.49,440.43 C588.49,441.09 598.85,440.72 613.02,440.43" id="Path" stroke="#0E3E32" stroke-width="6" stroke-linejoin="round"></path>
        <path d="M367.76,435.29 C390.17,434.99 423.9,434.99 443.21,434.99 C471.98,434.99 475.27,434.27 507.12,435.3 C513.88,435.52 520.12,435.65 526.12,435.74" id="Path" stroke="#0E3E32" stroke-width="6" stroke-linejoin="round"></path>
        <path d="M347.35,440.54 C353.76,440.61 360.43,440.67 364.41,440.54" id="Path" stroke="#0E3E32" stroke-width="6" stroke-linejoin="round"></path>
        <path d="M54.2,432.47 C76.2,433.81 106.76,438.39 133.41,441.35 C157.14,443.99 177.16,441.35 201.17,441.45 C224.69,441.45 243.37,440.12 267.78,440.61 C276.46,440.78 284.95,440.78 293.34,440.72" id="Path" stroke="#0E3E32" stroke-width="6" stroke-linejoin="round"></path>
        <path d="M753.69,256.19 C753.77,235.19 753.45,214.79 754.15,203.33 C755.15,186.45 755.08,170.41 755.08,155.58" id="Path" stroke="#0E3E32" stroke-width="6" stroke-linejoin="round"></path>
        <path d="M755.08,155.58 C750.44,114.78 746.73,84.64 738.64,42.87" id="Path" stroke="#0E3E32" stroke-width="6" stroke-linejoin="round"></path>
        <path d="M180.66,108.1 C207.98,110.1 225.94,111.33 239.89,112.43 C250.89,113.29 325.24,122.43 336.84,124.1 C350.46,126.04 534.3,142.1 618.71,152.82 C668.08,159.1 686.03,160.9 740.07,166.36" id="Path" stroke="#0E3E32" stroke-width="6" stroke-linejoin="round"></path>
        <path d="M3.65,390.08 C6.24,384.35 7.54,377.72 14.02,387.13 C14.8781766,386.261579 15.6766637,385.336135 16.41,384.36 C18.62,386.36 21.47,386.5 24.17,387.55 C24.52,385.25 23.23,378.4 24.66,376.66 C27.88,372.79 28.44,377.77 32.14,377.32 C37.27,376.71 44.49,373.21 47.29,380.45 C49.61,378.94 52.57,376.89 55.05,375.09 C57.65,377.89 58.4,381.64 59.69,385.31 C63.08,379.31 68.09,373.71 71.14,384.26 C72.21,383.02 75.76,381.61 76.87,380.01 C77.87,382.78 80.48,384.06 81.87,386.26 C85.1574271,384.038652 86.7072368,380.000359 85.75,376.15 C89.95,383.61 92.85,379.73 95.94,378.96 C95.26,379.13 102.76,376.2 103.72,375.65 C108.06,373.17 124.26,362.4 111.18,360.98 C111.77,354.83 117.18,354.13 121.76,355.49 C124.16,348.2 121.07,348.24 120.46,343.17 C120.46,343.26 118.68,337.86 118.72,337.96 C118.72,337.84 120.54,332.61 120.59,331.39 C110.19,331.33 121.87,322.68 121.59,320.31 C120.82,314.25 115.74,315.09 111.08,318.61 C107.69,311.33 117.57,311.61 119.37,305.36 C120.57,301.17 118.03,289.54 114.1,288.81 C115.4,285.44 116.39,282.05 115.1,278.97 C113.27,280.49 110.97,281.07 109.37,282.97 C110.54,278.97 112.55,275.24 112.31,271.15 C108.974845,270.927038 105.626548,271.296061 102.42,272.24 C102.54,266.46 114.89,256.93 105.49,251.83 C103.49,253.97 101.1,255.69 99.73,258.07 C99.0056388,254.451076 98.7402145,250.755294 98.94,247.07 C95.94,248.88 93.65,252.77 91.03,255.6 C77.54,253.88 90.14,243.1 82.17,237.6 C81.29,240.4 79.29,243.31 78.64,246.26 C73.08,244.67 71.39,239.07 70.34,234.21 C66.25,237.27 62.21,242.42 56.9,242.44 C51.04,242.44 51.64,232.55 45.5,244.83 C44.8972125,244.611234 44.3333925,244.29725 43.83,243.9 C42.52,249.19 39.34,253.27 38.93,258.51 C35.77,255.51 35.18,250.63 34.82,246.46 C29.76,247.53 25.31,245.15 23.82,240.26 C23.61,245.26 24.66,251.89 20.82,254.95 C16.63,249.67 19.25,243.36 15.87,237.83 C12.3556912,237.922403 8.96892231,239.166092 6.23,241.37 C5.53011674,240.429753 4.77547749,239.531532 3.97,238.68" id="Path" stroke="#0E3E32" stroke-width="6" stroke-linejoin="round"></path>
        <path d="M3.69,58.69 C4.45,57.05 5.25,55.4 5.75,54.54 C7.49,64.2 12.09,67.54 9.2,76.6 C7.09,83.22 0.41,93.18 10.44,97.6 C13.92,74.43 33.17,107.43 16.9,104.27 C16.231926,107.058843 15.932705,109.923296 16.01,112.79 C26.51,121.34 24.25,106.24 27.55,102 C31.55,104.92 35.13,108 40.1,107.67 C40.42,109.09 41.31,111.45 41.43,112.74 C42.19,112.4 51.36,104.92 51.33,104.99 C55.13,97.18 52.78,102.93 49.53,97.58 C48.21,95.4 46.01,95.77 44.74,92.27 C43.74,89.56 47.14,86.07 46.74,84.73 C45.25,79.22 43.85,78.32 37.74,75.91 C37.5432234,74.6625512 38.1678711,73.4293758 39.29,72.85 C39.63,73.62 41.72,76.09 42.45,77.43 C53.45,75.57 48.22,69.43 46.98,63 C45.88,57.3 49.22,59 45.79,52.3 C44.4,49.57 40.79,48.78 39.15,44.94 C29.35,46.85 32.4,34.94 41.15,35.94 C39.16,31 38.2,26.46 35.43,22.24 C37.72,19.75 37.88,17.76 41.43,16.61 C43.05,11.13 48.77,10.38 46.83,4.22" id="Path" stroke="#0E3E32" stroke-width="6" stroke-linejoin="round"></path>
        <path d="M26.49,117 C24.61,115.34 24.18,114 21.24,116.11 C22.24,122.11 24.83,132.51 31.96,125.86 C36.38,121.72 32.43,108.51 27.57,113.77" id="Path" stroke="#0E3E32" stroke-width="6" stroke-linejoin="round"></path>
        <path d="M42.66,110.54 C40.55,112.07 39.56,114.1 40.66,117.92 C41.93,117.92 43.38,118.24 44.66,118.25 C43.54,124.4 46.83,129.41 52.15,132.02 C52.77,131.12 53.71,129.93 54.22,129.18 C55.11,130.77 57.15,131.94 57.96,134.18 C68.96,126.93 45.96,112.68 43.48,106.49 C40.88,107.69 42.25,108.49 41.59,110.49" id="Path" stroke="#0E3E32" stroke-width="6" stroke-linejoin="round"></path>
        <path d="M58.82,136.41 C48.82,134.18 57.27,149.41 59.95,153.11 C60.2724934,149.137143 62.1743776,145.459447 65.23,142.9 C67.85,144.7 73.29,161.74 77.13,152.08 C80.65,143.23 68.86,142.85 66.42,137.27 C65.42,137.97 64.19,138.5 63.13,139.27 C60.69,137.27 57.52,134.72 55.59,132.07" id="Path" stroke="#0E3E32" stroke-width="6" stroke-linejoin="round"></path>
        <path d="M67.44,114.85 C65.8,122.54 74.25,135.78 79.13,141.25 C79.6840312,137.138693 79.4189386,132.958387 78.35,128.95 C79.4302449,129.164517 80.4654106,129.563699 81.41,130.13 C86.24,125.82 77.11,117.89 77.48,111.57 C82.73,109.73 86.6,104.45 91.09,109.42 C93.37,107.75 96.64,107.49 98.66,105.19 C103.38,107.59 105.14,113.46 108.45,117.27 C108.94,116.18 109.63,115.06 110.18,113.63 C111.81,112.79 113.18,113.05 114.87,112 C117.481274,114.175627 119.348129,117.112253 120.21,120.4 C118.75,120.19 116.82,120.89 114.76,120.29 C113.41,124.54 114.33,124.78 118.17,127.22 C119.06,125.46 120.82,124.39 121.37,123.56 C122.6,125.19 124.92,128.99 125.81,130.56 C121.23,131.84 120.17,143 127.62,143.23 C127.467683,149.368591 128.619723,155.46963 131,161.13 C140.14,160.03 139.37,146.02 131.15,144.53 C131.56,139.16 126.92,139.36 129.39,134.65 C127.39,133.99 133.39,127.28 130.8,127.24 C137.2,124.38 136.86,131.97 139.64,137.24 C143.64,132.88 148.29,134.85 152.22,137.89 C152.22,148.73 150.09,149.8 157.22,159.03 C157.34,154.6 160.31,149.43 160.4,145.26 C160.49,141.61 159.65,130.35 157.8,128.57 C155.95,126.79 153.26,126.42 152.62,125.92 C151.98,125.42 149.54,127.38 148.12,126.33 C147.05,125.54 147.82,123.12 147.03,122.61 C144.52,120.97 139.52,107.31 137.27,121.07 C133.11,119.24 130.38,116.07 131.7,111.77 C122.78,107.14 128.13,99.71 126.22,94.42 C125.12,91.42 116.22,78 113.83,77.15 C115.7,82.89 123.46,97.33 111.49,96.15 C111.74,107.09 103.24,101.62 101.69,93.58 C101.41,95.17 99.62,97.58 99.37,99.68 C97.37,98.56 95.13,98.94 93.01,96.89 C92.16,98.08 89.66,99.4 88.78,100.6 C87.78,99.01 85.37,97.91 84.42,95.73 C83.58,98.67 80.93,101.73 79.84,104.58 C72.91,101.83 79.99,107.58 70.72,104.65 C70.23,105.85 66.09,116.89 63.13,114.88" id="Path" stroke="#0E3E32" stroke-width="6" stroke-linejoin="round"></path>
        <path d="M175.66,152.74 C177.14,160.54 179.9,162.74 187.94,160.87 C187.2,157.54 186.09,153.87 187.39,150.5 C188.79,146.86 193.8,145.92 187.5,141.84 C187.69,146.19 183.67,146.04 180.91,144.78 C180.91,143.32 179.96,141.38 180.31,139.71 C175.6,139.47 170.79,137.55 166.74,136.31 C167.27,140.47 164.99,143.47 165.14,147.31 C168.22,147.79 170.24,150.31 171.14,153.14 C171.61,151.84 172.87,150.88 173.39,149.75 C173.91,150.75 174.39,153.35 174.53,152.13" id="Path" stroke="#0E3E32" stroke-width="6" stroke-linejoin="round"></path>
        <path d="M176.24,112.77 C180.46,107.5 187.66,122.45 182.05,122.53 C181.86,123.85 180.58,125.53 180.39,126.72 C177.61,124.72 177.8,120.38 174.44,119.4 C173.23,122.79 177.63,127.14 176.15,129.87 C175.09,131.87 170.86,129.67 169.34,134.25 C167.14,128.25 163.63,122.1 160.96,116.25 C159.77,113.63 156.72,110.7 156.09,108.05 C155.46,105.4 157.63,103.2 157.47,100.28 C157.31,97.36 155.53,92.84 152.47,94.61 C148.85,96.71 152.67,101.45 151.56,103.95 C150.56,106.15 147.31,104.81 146.79,106.39 C145.91,109.13 149.58,112.3 150.89,114.67 C143.89,114.94 143,106.25 139.84,116.26 C133.9,114.1 136.2,99.66 132.39,94.82 C129.84,91.57 125.39,92.03 127.7,86.88 C128.7,84.61 134.86,81.93 136.92,81.94 C134.37,80.65 148.61,81.74 135.73,64.85 C133.73,62.25 131.04,65.64 130.91,61.05 C127.91,61.85 127.91,65.05 126.91,67.56 C123.91,64.11 124.25,57.83 118.16,59.2 C117.63,55.73 117.6,52.03 116.97,48.61 C119.24,48.71 120.97,49.89 122.67,51.61 C124.51,50.38 125.44,47.04 124.48,44.66 C122.61,40.1 121.23,43.81 118.96,41.66 C114.96,37.83 119.56,31.66 119.45,26.44 C122.33,28.05 123.95,30.71 127,32.08 C128.37,23.57 136.2,26.54 140.42,30.2 C144.42,33.69 144.22,39.83 147.29,43.76 C149.22,46.24 152.62,47.98 155.13,49.87 C158.55,52.44 159.91,51.63 159.13,55.78 C158.35,59.93 154.13,58.52 158.63,62.72 C160.7,64.65 163.73,65.19 165.71,67.48 C168.458659,70.9747551 170.897867,74.7021592 173,78.62 C169.71,77.62 157.36,77.5 164.32,82.5 C169.32,86.11 171.01,81.67 174.9,88.76 C174.21,88.91 173.41,89.32 172.59,89.45 C172.65,93.66 172.12,107.63 178.59,107.45" id="Path" stroke="#0E3E32" stroke-width="6" stroke-linejoin="round"></path>
        <path d="M64.88,4.08 C63.6,12.46 69.41,13.41 72.35,19.08 C73.95,22.16 72.77,27.22 75.69,29.95 C78.9,32.95 83.11,30.6 86.51,33.61 C87.0519622,32.8415746 87.6793022,32.1370751 88.38,31.51 C90.66,34.05 92.61,37.82 95.21,40.51 C91.6,44.88 97.68,46.33 99.42,50.36 C95.77,50.03 93.9,51.74 94.07,55.57 C99.48,58.75 108.13,59.57 106.39,67.99 C105.71,66.89 104.75,65.91 104.02,64.84 C95.58,68.7 105.68,77.84 106.02,81.84 C106.74,89.38 98.67,86.04 100.35,96.42 C95.51,94.71 94.88,80.34 88.14,84 C84.62,85.92 88.14,90 86.47,93.07 C85.17,95.5 79.85,97.92 77.74,99.07 C75.46,96.48 72.24,91.18 72.12,87.56 C71.94,81.56 74.12,84.43 75.26,81.04 C77.07,75.47 74.93,62.9 81.45,61.26 C81.2470454,57.2592372 80.1356082,53.3572375 78.2,49.85 C73.84,54.62 73.38,61.2 75.29,67.49 C73.99,67.38 71.2,68.74 69.9,68.6 C70.35,74.6 74.62,81.6 69.73,86.6 C68.32,85.49 65.19,83.87 64.15,82.08 C63.7879719,86.5375283 63.9895625,91.0229196 64.75,95.43 C62,89.26 63.63,81.18 58.9,76.08 C55.51,72.41 50.7,75.58 50.16,68.08 C58.16,65.5 54.72,60.16 54.54,54.43 C54.34,48.1 59.96,40.35 55.78,34.89 C54.64,35.1 53.6,35 52.78,35.11 C52.78,29.52 68.9,18.72 55.65,14.11 C56.85,13.11 63.35,5.32 64.13,4.52" id="Path" stroke="#0E3E32" stroke-width="6" stroke-linejoin="round"></path>
        <path d="M192.3,54.05 C188.52,52.68 183.7,48.72 183.77,44.24 C183.89,36.78 188.36,43.81 192.3,39.12 C196.39,41.69 196.3,48.69 193.97,53.22" id="Path" stroke="#0E3E32" stroke-width="6" stroke-linejoin="round"></path>
        <path d="M276.42,4.91 C283.37,7.33 281.42,21.79 275.63,24.03 C278.78,15.57 279.96,14.37 273.07,9.53 C268.56,6.36 264.68,3.41 259.56,8.47 C262.46,10.33 266.51,11.27 268.56,14.8 C270.42,18.08 268.03,19.91 268.97,23.58 C270.4,29.17 280.41,40.42 282.66,28.25 C285.427713,28.2420475 288.13424,29.0641071 290.43,30.61 C290.35,30.61 288.33,30.23 287.67,30.14 C295.67,34.87 285.96,40.9 290.76,47.04 C292.49,49.24 300.82,50.74 303.76,53.09 C298.93,53.09 295.98,48.95 292.06,54.03 C290.83,52.31 288.06,51.21 286.59,50.12 C288.13,56.53 280.59,57.59 277.33,61.92 C271.05,60.14 281.48,36.78 268.93,44.84 C268.11,41.84 262.87,30.32 260.71,28.84 C253.83,24.02 257.65,30.58 258.82,33.84 C259.82,36.72 262.12,37.96 262.39,41.35 C262.61,44.15 259.51,46.14 259.75,48.91 C260.12,53.08 264.21,58.8 265.64,62.99 C257.59,58.84 257.38,44.99 249.09,44.79 C248.24,41.56 252.09,37.15 251.62,35.79 C249.94,30.52 245.45,30.55 243.16,35.54 C236.09,29.54 248.54,27.68 241.28,23.3 C238.94,21.89 237.51,31.1 234.36,23.3 C233.21,20.42 235.95,15.07 237.36,13.3 C239.36,16.59 240.05,15.3 242.25,16.54 C242.63,12.34 241.13,7.59 238.25,5.01 L227.97,4.64 C228.000547,5.88025919 227.796992,7.11515937 227.37,8.28 C223.73,17.57 221.09,12.52 214.87,9.45 C208.46,15.7 225.07,14.53 225.74,21.31 C226.1,24.98 217.47,24.1 223.24,30.06 C226.08,32.98 230.75,30.89 233.43,33.48 C235.49,35.48 234.88,39.54 236.62,41.28 C238.36,43.02 240.04,40.51 241.62,42.08 C243.62,44.15 244.3,47.25 246.39,49.16 C247.99639,50.342567 249.665489,51.4374955 251.39,52.44 C254.54,56.66 254.18,70.61 252.39,77.37 C258.05,79.65 245.11,78.68 248.24,80.37 C243.77,76.64 244.31,71.37 241.76,66.63 C239.9,63.18 237.04,60.88 234.88,57.63 C232.72,54.38 231.69,46.49 227.99,44.45 C227.55,44.69 226.99,45.96 226.63,46.34 C221.76,45.58 217.4,51.94 216.63,56.47 C211.24,55.81 211.19,50.73 208.86,46.85 C206.63,43.14 202.86,41.17 200.77,38.19 C198.77,35.36 193.87,29.34 201.15,29.12 C205.4,28.99 207.96,36.64 209.59,39.67 C209.59,31.51 198.89,23.99 190.85,24.1 C189.24,18.62 187.73,2.25 179.97,4.9 C180.13,9.58 183.73,11.06 183.13,15.9 C182.72,19.17 178.72,20.09 178.99,23.53 C179.35,28.13 185.21,27.88 185.66,31.75 C185.87,33.51 180.85,38.75 179.92,40.07 C177.25,37 177,33.22 175,30.34 C174.74,31.51 174.5,32.78 174.26,33.83 C172.46,25.03 166.42,26.33 162.26,19.75 C158.52,13.75 161.26,4.55 150.66,6.04 C154.55,10.04 151.43,12.97 152.32,17.75 C153.05,21.68 156.32,24.67 156.4,28.94 C145.94,30 147,15 141.7,9.72 C131.99,0.07 137.56,19.92 132.56,23.72 C125.82,28.83 122.5,13.42 118.18,9.51 C113.86,5.6 112.4,6.81 109.7,3.59" id="Path" stroke="#0E3E32" stroke-width="6" stroke-linejoin="round"></path>
        <path d="M292.24,19.07 C287.03,18.55 288.37,27.07 292.24,29.88 C292.97,29.26 293.97,28.76 294.74,28.09 C297.22,30.18 297.93,33.29 300.63,35.33 C302.99,29.44 297.63,21.62 293.08,19.07" id="Path" stroke="#0E3E32" stroke-width="6" stroke-linejoin="round"></path>
        <path d="M302.24,58.21 C305.72,58.87 305.52,61.33 307.86,63.21 C308.58,63.79 314.21,67.65 314.33,67.83 C316.86,71.83 315.09,77.96 316.13,83.34 C309.03,81.34 300.21,82.88 300.7,72.25 C292.7,72.91 297.46,83.31 292.24,87.36 C289.677532,83.9937797 287.453427,80.3829577 285.6,76.58 C281.05,78.18 273.96,81.12 270.98,76.12 C267.15,69.71 274.4,63.85 279.79,61.79 C282.61,65.27 285.31,63.79 288.6,65.63 C291.45,67.22 288.83,72.77 293.74,68.26 C294.86,67.26 293.09,64.21 293.9,63.15 C294.807401,62.2639001 295.78381,61.4513404 296.82,60.72 C298.22,58.24 300.9,55.72 302.24,51.55" id="Path" stroke="#0E3E32" stroke-width="6" stroke-linejoin="round"></path>
        <path d="M926,419 C926.2,412.1 921.63,393.62 927.39,388.72 C928.98,391.83 931.97,394.32 934.58,396 C937.52,389 939.02,396.08 941.89,394.87 C944.35,393.87 944.6,390.51 947.06,389.15 C947.98962,390.336596 948.260187,391.911146 947.78,393.34" id="Path" stroke="#0E3E32" stroke-width="6" stroke-linejoin="round"></path>
        <path d="M922.91,389.43 C923.45,392.43 920.42,393.84 916.69,393.34 C911.93,392.7 912.48,387.43 909.75,386.67 C904.32,385.16 903.45,392.47 898.42,392.62 C894.61,392.73 888.91,387.83 889.96,384.28 C877.84,385.35 878.83,369.4 887.8,376.19 C890.53,370.51 889.92,368.33 887.18,362.8 C885.58,359.58 879.6,351.97 888.62,352.8 C888.54,349.98 887.62,341.7 892.22,341.98 C894.68,342.13 895.33,349.17 897.22,351.31 C900.47,344.8 900.44,335.96 904.96,329.76 C909.83,336.76 911.05,327.68 914.73,326.76 C919.06,325.7 920.53,331.07 924.46,334 C926.21,328.1 932.39,329.31 932.12,322.62 C936.75,322.08 939.89,324.8 939.9,329.28 C942.69,327.82 943.09,329.55 944.64,330.28" id="Path" stroke="#0E3E32" stroke-width="6" stroke-linejoin="round"></path>
        <path d="M954,424.43 C954,413.36 954.51,402.11 953.88,391.11 C950.53769,391.334486 947.442544,389.344169 946.26,386.21 C935.77,392.49 934.26,379.34 925.26,376.21 C921.12,374.76 915.11,375.26 915.11,369.41 C915.11,364.93 917.78,367.29 918.61,365.3 C919.06,364.22 919.93,360 920.55,358.81 C922.93,354.3 925.55,353.43 928.55,349.67 C930.55,347.24 930.35,344.36 932.38,342.16 C933.48,340.96 936.64,341.16 937.99,340.08 C939.841036,338.175892 941.552153,336.140599 943.11,333.99 C943.62,333.27 945.89,334.07 946.31,333.25 C947.37,331.2 945.86,329.85 946.41,328.15 C947.5,324.75 948.12,317.66 948.07,314.21 C955.33,320.42 955.32,325.13 965.66,325.21 C969.36,325.21 971.66,323.49 975.73,324.85 C979.8,326.21 982.14,329.2 986.08,331.09 C981.79,339.33 991.84,339.67 994.08,346.27 C996.08,351.92 992.22,358.48 996.29,365.27 C991.72,370.47 994.45,378.4 995,384.17 C996.55,400.35 990.58,389.83 982.91,390.96 C980.06,391.38 978.91,395.32 977.38,395.66 C971.28,396.99 973.2,392.98 968.14,390.9 C963.62,389.03 954.45,392.79 953.96,385.53" id="Path" stroke="#0E3E32" stroke-width="6" stroke-linejoin="round"></path>
        <path d="M1040.91,446.52 C1041.46,436.65 1041.81,427.91 1041.05,419.77 C1040.17,410.33 1040.34,400.61 1040.34,390.99" id="Path" stroke="#0E3E32" stroke-width="6" stroke-linejoin="round"></path>
        <path d="M1038,393.32 C1034.87,396.78 1030.54,400.13 1027.15,403.41 C1022.3,399.56 1024.57,394.76 1018.15,392.52 C1014.22,391.14 1007.96,392.41 1006.56,396.43 C1002.03,394.21 1002.81,386.86 996.79,387.1" id="Path" stroke="#0E3E32" stroke-width="6" stroke-linejoin="round"></path>
        <path d="M992.9,342 C994.35,342 995.6,340.9 997.45,341.2 C998.29,336.71 996.88,324.43 992.68,322.5 C998.19,321.73 1004.31,320.73 1009.87,320.9 C1010.56,316.8 1011.15,312.06 1014.87,309.9 C1015.98,311.58 1018.35,313.9 1019.3,315.96 C1021.75,313.25 1022.09,308.9 1026.3,307.79 C1029.61,314.85 1031.67,312.51 1037.59,312.79 C1041.86,312.97 1045.59,314.01 1050.33,315.58 C1052.47,316.28 1061.28,317.33 1062.45,319.13 C1063.75,321.13 1061.31,324.95 1062.95,327.82 C1064.59,330.69 1069.95,332.06 1071.95,335.82 C1073.79,339.35 1073.19,341.99 1073.03,345.55 C1072.87,349.11 1071.65,351.79 1072.86,355.4 C1074.42,360.08 1079.86,363.73 1081.01,367.96 C1084.12,368.82 1087.63,369.69 1089.26,372.38 C1076.61,377.44 1092.46,385.66 1095.46,391.01 C1091.05,397.35 1084.05,392.33 1078.32,394.42 C1075.76,395.36 1074.63,399.69 1071.68,400.79 C1066.96,402.53 1068.42,400.99 1064.36,400.39 C1062.36,400.1 1060.45,398.81 1057.59,398.78 C1055.15,398.78 1052.7,400.78 1049.59,400.37 C1042.23,399.26 1045.74,393.93 1040.24,392.59" id="Path" stroke="#0E3E32" stroke-width="6" stroke-linejoin="round"></path>
        <path d="M963.35,322.55 C963.61,316.43 961.6,310.4 961.91,303.99 C968.91,305.64 982.04,306.29 989.04,305.48 C995.04,304.78 1015.34,299.54 1021.52,297.63 C1044.59,290.52 1041.77,290.81 1065.96,284.47 C1082.21,285.26 1108.78,288.47 1122.66,290.41" id="Path" stroke="#0E3E32" stroke-width="6" stroke-linejoin="round"></path>
        <path d="M971.13,394.1 C972.28,403.95 969.93,414.93 970.47,425.1 C979.17,424.47 988.28,427.03 996.94,427.53 C1009.07,428.22 1021.13,429.01 1032.94,431.02 C1059.51,435.53 1072.52,435.77 1095.11,440.15 C1107.52,442.55 1110.4,441.47 1122.11,443.08" id="Path" stroke="#0E3E32" stroke-width="6" stroke-linejoin="round"></path>
        <path d="M1066,286 C1066.47,291.61 1064.7,296.66 1064.45,302.34 C1064.21,307.69 1065.32,313.76 1063.67,318.67" id="Path" stroke="#0E3E32" stroke-width="6" stroke-linejoin="round"></path>
        <path d="M1075.33,354.44 C1083.17,356.35 1091.51,357.54 1099.44,359.72 C1109,362.36 1112.3,362.36 1122.51,364.34" id="Path" stroke="#0E3E32" stroke-width="6" stroke-linejoin="round"></path>
        <path d="M1081,367.31 C1090.59,371 1097.56,374.16 1105.39,376.54 C1112.12,378.54 1117.49,380.98 1123.19,382.8" id="Path" stroke="#0E3E32" stroke-width="6" stroke-linejoin="round"></path>
        <path d="M982.3,329.27 C982.3,332.27 982.09,326.09 982.01,324.9 C981.81,321.64 982.54,320.49 981.9,317.37" id="Path" stroke="#0E3E32" stroke-width="6" stroke-linejoin="round"></path>
        <path d="M982.69,317 C996.17,313.83 1006.48,309.47 1019.96,305.5 C1033.96,301.38 1050.49,296.38 1065.16,293.21" id="Path" stroke="#0E3E32" stroke-width="6" stroke-linejoin="round"></path>
        <path d="M1066,293.19 C1082.25,294.38 1082.9,294.65 1092.17,295.57 C1103.69,296.71 1112.39,297.57 1123.89,298.74" id="Path" stroke="#0E3E32" stroke-width="6" stroke-linejoin="round"></path>
        <path d="M790.71,419 C790.51,419.74 790.77,420.5 790.55,421.28 C784.66,413.43 786.55,392.56 786.89,382.73 C779.38,387.85 772.72,375.81 764.65,376.65 C760.79,377.06 759.33,378.65 754.8,378.39 C751.8,378.2 745.51,377.1 743.66,374.85 C748.43,372.85 754.74,373.2 756.55,367.03 C758.44,360.59 753.02,361.12 751.44,355.16 C758.99,355.62 760.24,348.16 759.44,343.02 C758.87,339.39 753.36,329.84 748.53,327.17 C750.53,322.31 752.65,322.05 753.31,317.1 C753.65,314.55 752.23,311.45 752.87,308.68 C756.1,308.98 758.87,311.68 762.27,310.91 C767.17,309.83 764.83,305.97 768.9,304.21 C773.55,302.21 774.41,307.21 778.74,305.61 C782.68,304.18 782.52,297 788.09,296.16 C791.81,308.39 801.81,292.75 803.48,302.23 C805.37,299.53 806.58,296.23 809.24,294.71 C811.24,303.86 810.15,309.54 816.24,316.37 C818.94,319.37 821.08,318.54 821.86,322.93 C822.41,326.01 818.86,329.11 819.58,332.47 C820.21,335.47 824.2,337.47 825,340.47 C826.42,345.85 824.21,345.02 822.56,350.47 C821.05,355.39 822.35,362.47 817.38,365.39 C819.89,368.39 823.06,372.49 827.18,372.32 C810.59,375.65 825.28,381.52 828.5,388.57 C821.88,391.11 821.5,390.08 815.5,389.09 C811.14,388.36 805.99,388.4 801.58,387.15 C800.43,390.59 798.22,393.27 794.58,392.67 C789.18,401.53 795.9,419.07 794.64,425.26" id="Path" stroke="#0E3E32" stroke-width="6" stroke-linejoin="round"></path>
        <path d="M769.65,303.1 C771.12,287.1 767.21,270.44 768.03,254.1 C769.08,233.21 769.66,211.71 769.65,190.78 C769.65,186.93 771.65,176.38 769.71,173.39 C767.2,169.62 760.71,170.9 756.31,171.13 C756.14,171.92 756.31,172.61 756.21,173.39" id="Path" stroke="#0E3E32" stroke-width="6" stroke-linejoin="round"></path>
        <path d="M776,305.48 L776,243.06 C776,233.66 778,176.92 769.67,177.37" id="Path" stroke="#0E3E32" stroke-width="6" stroke-linejoin="round"></path>
        <path d="M776.77,226.4 C777.56,230.04 780.47,232.92 783.02,235.93 C780.22,244.27 782.31,256.87 782.31,265.93 C782.31,273.58 778.86,297.53 783.89,302.3" id="Path" stroke="#0E3E32" stroke-width="6" stroke-linejoin="round"></path>
        <path d="M4,396.42 C25.59,396.19 38.72,396.26 54.29,396.26" id="Path" stroke="#0E3E32" stroke-width="6" stroke-linejoin="round"></path>
        <path d="M772.38,435 C767.02,434.78 765.83,442.13 760.3,435.72 C757.5,432.48 757.2,422.86 757.53,418.72 C758.71,403.72 774.44,404.37 777.31,417.86 C778.44,423.2 776.82,430.28 778,434.97 C779.61,441.37 785.45,442.13 790.32,445.97 C800.32,453.84 800.68,467.77 803.58,479.26 C805,484.89 811.73,516.76 799.84,513.45 C799.724845,510.843706 799.980738,508.234274 800.6,505.7 C797.68,503.48 799.39,501.43 798.72,498.03 C797.9,493.93 796.07,491.72 794.42,488.08 C791.5,481.63 789.65,474.81 787.23,468.28" id="Path" stroke="#0E3E32" stroke-width="6" stroke-linejoin="round"></path>
        <path d="M791.47,482.42 C791.47,492.17 794.97,506.31 792.27,515.59 C784.81,513.59 777.91,515.27 770.43,514.95 C762.43,514.6 756.19,511.27 748.3,514.72 C747.16129,512.347123 746.453607,509.790661 746.21,507.17" id="Path" stroke="#0E3E32" stroke-width="6" stroke-linejoin="round"></path>
        <path d="M758.94,437.16 C744.89,440.27 738.89,452.92 737.05,466.9 C736.13,473.9 733.83,479.9 736.85,486.65 C739.87,493.4 743.8,502.99 751.93,504.47 C753.08,499.96 749.41,490.56 746.93,486.31 C742.42,478.69 743.93,476.05 744.84,467.57" id="Path" stroke="#0E3E32" stroke-width="6" stroke-linejoin="round"></path>
        <path d="M758.23,439.28 C760.85,443.28 763.94,444.28 768.89,444.85 C771.54,442.45 775.83,442.22 776.62,437.85" id="Path" stroke="#0E3E32" stroke-width="6" stroke-linejoin="round"></path>
        <path d="M737.72,464 C741.04,465.31 745.05,468.46 748.33,467.54" id="Path" stroke="#0E3E32" stroke-width="6" stroke-linejoin="round"></path>
        <path d="M787.94,469.69 C791.42,465.92 796.14,466.63 800.67,467.57" id="Path" stroke="#0E3E32" stroke-width="6" stroke-linejoin="round"></path>
        <path d="M771,529.8 C771,560.28 779.93,589.46 779.49,619.63 C779.42,624.63 777.32,632.8 770.3,628.88 C764.81,625.81 765.9,612.75 764.52,607.6 C760.79,593.66 758.69,579.42 756.17,565.14 C753.17,548.38 747.77,531.38 747.67,514.24" id="Path" stroke="#0E3E32" stroke-width="6" stroke-linejoin="round"></path>
        <path d="M766.72,616.79 C770.98,617.79 774.29,615.62 778.04,616.79" id="Path" stroke="#0E3E32" stroke-width="6" stroke-linejoin="round"></path>
        <path d="M791.47,515.66 C788.72,519.21 789.09,525.79 788.64,530.53 C788.03,537.08 786.23,543.04 784.93,549.45 C782.58,561.09 777.71,574.54 777.33,586.38" id="Path" stroke="#0E3E32" stroke-width="6" stroke-linejoin="round"></path>
        <path d="M765,621 C759.29,616.31 755.93,607.64 762.52,603.4" id="Path" stroke="#0E3E32" stroke-width="6" stroke-linejoin="round"></path>
        <path d="M748.33,438.57 C749.19,436.01 747.22,427.06 749.16,422.43 C751.320625,421.769028 753.244374,420.498103 754.7,418.77" id="Path" stroke="#0E3E32" stroke-width="6" stroke-linejoin="round"></path>
        <path d="M755.4,417.36 C754.47,410.64 754.23,405.03 756.99,398.81 C762.21,387.08 769.84,389.81 773.99,400.97 C775.46,404.91 775.56,408.97 777.99,412.29 C780.42,415.61 784.33,417.56 786.69,421.58 C791.04,429.01 795.44,439.07 796.31,447.52 C795.19,448.11 795.31,447.35 794.31,447.06" id="Path" stroke="#0E3E32" stroke-width="6" stroke-linejoin="round"></path>
        <path d="M702.58,546.92 C701.96,532.49 715.76,526.98 718.31,511.16 C719.92,501.16 713.95,483.16 712.31,471.81" id="Path" stroke="#0E3E32" stroke-width="6" stroke-linejoin="round"></path>
        <path d="M714.9,540.39 C727.29,527.75 729.51,500.96 727.82,484.56 C726.82,474.73 727.93,463.83 723.31,454.84 C719.1,446.63 706.19,441.12 698.12,439.28" id="Path" stroke="#0E3E32" stroke-width="6" stroke-linejoin="round"></path>
        <path d="M679.73,432.92 C684.41,436.92 691.47,444.62 696.04,436.5 C699.04,431.26 697.62,416 695.92,410.66 C693.2,402.08 684.01,393.73 674.4,398.66 C667.4,402.23 664.56,425.4 657.18,423.25 C657.38,430.13 664.18,443.35 672.52,441.37 C659.59,448.43 641.1,455.09 659.93,468.3" id="Path" stroke="#0E3E32" stroke-width="6" stroke-linejoin="round"></path>
        <path d="M708.73,473.23 C710.64,465.63 717.82,460.39 723.58,458.37" id="Path" stroke="#0E3E32" stroke-width="6" stroke-linejoin="round"></path>
        <path d="M717.21,514.24 C709.4,505.43 715.43,492.75 714.39,482.42" id="Path" stroke="#0E3E32" stroke-width="6" stroke-linejoin="round"></path>
        <path d="M660.64,462.62 C660.82,469.06 662.49,475.38 663.45,481.73 C664.64,489.62 663.45,496.91 662.23,504.89 C661.46,509.81 656.7,522.21 658.43,526.59 C661.43,534.14 673.88,532.21 680.15,531.92 C688.39,531.54 701.24,534.3 707.31,529.1" id="Path" stroke="#0E3E32" stroke-width="6" stroke-linejoin="round"></path>
        <path d="M631.64,563.75 C625.35,557.43 633.64,549.75 636.75,544.1 C641.86,534.93 643.86,526.19 646.55,516.01 C647.75,511.47 650.47,507.85 651.6,503.67 C652.98,498.54 651.87,492.67 652.15,487.33 C652.58,479.06 652.29,469.23 654.27,461.2" id="Path" stroke="#0E3E32" stroke-width="6" stroke-linejoin="round"></path>
        <path d="M632.35,560.21 C632.8,564.32 635.86,566.07 639.42,564.46" id="Path" stroke="#0E3E32" stroke-width="6" stroke-linejoin="round"></path>
        <path d="M633.06,558.09 C650.06,551.48 639.14,572.29 635.83,578.18 C632.83,583.57 632.09,592.81 624.2,589.52 C619.2,587.45 612.97,577.45 611.39,572.84" id="Path" stroke="#0E3E32" stroke-width="6" stroke-linejoin="round"></path>
        <path d="M611.84,560.21 C616.84,564.29 620.84,573.67 624.76,579.29 C627.37,575.29 629.3,570.36 630.93,565.87" id="Path" stroke="#0E3E32" stroke-width="6" stroke-linejoin="round"></path>
        <path d="M640.84,558.8 C642.27,553.02 643.84,547.09 646.99,541.12 C651.44,532.57 652.82,528.84 653.72,519.19 C655.34,502.01 657.64,484.66 659.93,467.57" id="Path" stroke="#0E3E32" stroke-width="6" stroke-linejoin="round"></path>
        <path d="M642.25,558.8 C643.37,562.57 646.83,569.15 651.44,568.7" id="Path" stroke="#0E3E32" stroke-width="6" stroke-linejoin="round"></path>
        <path d="M657.1,525.56 C649.51,560.48 652.01,600.39 656.43,635.9 C657.71,646.16 658.85,655.78 661.35,665.59" id="Path" stroke="#0E3E32" stroke-width="6" stroke-linejoin="round"></path>
        <path d="M683.27,561.63 C684.45,571.43 680.83,582.39 680.4,592.28 C680.07,600.13 680.25,608.28 680.6,616.05 C681.22,630.1 681.91,648.72 685.39,660.64" id="Path" stroke="#0E3E32" stroke-width="6" stroke-linejoin="round"></path>
        <path d="M660.64,666.3 C663.29,663.82 676.36,662.3 680.44,661.86 C686.25,661.19 685.29,660.95 686.8,665.73 C687.8,668.93 687.33,676.01 686.8,679.38 C685.42,688.31 677.28,689.57 668.97,686.77 C663.28,684.85 663.97,686.01 662.76,679.77 C661.98,675.67 661.96,668.88 661.35,666.32" id="Path" stroke="#0E3E32" stroke-width="6" stroke-linejoin="round"></path>
        <path d="M699.43,645.31 C690.43,640.19 686.27,625.81 684.84,616.24 C683.01,603.94 682.05,590.95 681.15,578.6" id="Path" stroke="#0E3E32" stroke-width="6" stroke-linejoin="round"></path>
        <path d="M673.37,691.05 C673.51,694.75 672.11,700.82 669.69,703.81 C666.34,707.96 659.41,706.73 657.16,710.71 C658.93,711.79 678.67,711.53 681.16,710.19 C688.5,706.28 682.34,694.06 682.54,687.51" id="Path" stroke="#0E3E32" stroke-width="6" stroke-linejoin="round"></path>
        <path d="M715.09,701.66 C720.09,706.66 731.01,697.16 731.95,692.31" id="Path" stroke="#0E3E32" stroke-width="6" stroke-linejoin="round"></path>
        <path d="M701.66,566.58 C697.85,571.22 696.44,581.04 705.19,580.72" id="Path" stroke="#0E3E32" stroke-width="6" stroke-linejoin="round"></path>
        <path d="M737.72,570.82 C738.08,564.34 742.21,554.3 737.03,546.88 C730.84,538.02 719.21,540.21 710.68,542.65 C686.9,549.44 706.36,580.97 720.04,572.24" id="Path" stroke="#0E3E32" stroke-width="6" stroke-linejoin="round"></path>
        <path d="M693.17,598.4 C688.11,601.18 685.69,598.48 683.17,593.46 C687.53,587.75 695.5,590.62 701.7,589.94 C709.33,589.11 713.89,584.6 720.79,582.84" id="Path" stroke="#0E3E32" stroke-width="6" stroke-linejoin="round"></path>
        <path d="M693.88,599.11 C707.51,593.03 724.36,605.5 733.48,586.38" id="Path" stroke="#0E3E32" stroke-width="6" stroke-linejoin="round"></path>
        <path d="M720.75,580 C727.32,582.45 733.03,579.43 737.75,586.91 C742.47,594.39 734.84,599.77 727.85,594.85" id="Path" stroke="#0E3E32" stroke-width="6" stroke-linejoin="round"></path>
        <path d="M735.6,572.24 C736.22,577.24 739,581.02 740.6,586.03 C742.2,591.04 741.88,596.79 742.01,602.23 C742.3,614.72 749.31,624.86 750.4,637.23 C746.35,637.48 741.16,641.73 738.49,641.57 C734.49,641.33 731.05,642.06 727.25,642.27 C717.83,642.78 709.97,639.76 701.04,638.61 C702.36,632.43 705.32,626.02 705.88,619.26 C706.44,612.5 705.25,605.91 705.23,599.13" id="Path" stroke="#0E3E32" stroke-width="6" stroke-linejoin="round"></path>
        <path d="M706.61,587.79 C706.11,582.43 707.2,578.37 709.61,573.69" id="Path" stroke="#0E3E32" stroke-width="6" stroke-linejoin="round"></path>
        <path d="M743.38,640.84 C740.77,649.39 745.38,661.55 746.9,670.45 C740,669.89 734.77,680.82 727.09,676.93 C723.09,674.93 720.49,663.27 720.04,658.52" id="Path" stroke="#0E3E32" stroke-width="6" stroke-linejoin="round"></path>
        <path d="M722.17,671.25 C714.94,671.25 709.33,675.11 703.17,675.38 C702.7,666.8 698.39,648.13 701.65,640.84" id="Path" stroke="#0E3E32" stroke-width="6" stroke-linejoin="round"></path>
        <path d="M727.12,570.82 C729.12,572.82 731.82,572.82 733.48,570.82" id="Path" stroke="#0E3E32" stroke-width="6" stroke-linejoin="round"></path>
        <path d="M703.78,675.49 C704.26,681.13 706.96,691.57 704.46,697.07 C701.72,703.07 686.18,707.07 700.76,710.14 C713.3,712.79 714.17,707.81 715.1,696.88 C715.77,688.88 715.58,679.11 717.92,671.95" id="Path" stroke="#0E3E32" stroke-width="6" stroke-linejoin="round"></path>
        <path d="M740.24,710.82 C741.32406,709.452708 742.160045,707.905966 742.71,706.25 C745.47,695.43 740.12,684.75 740.08,674.02" id="Path" stroke="#0E3E32" stroke-width="6" stroke-linejoin="round"></path>
        <path d="M729.92,678.34 C731.6,683.74 733.55,692.48 732.77,696.71 L732.07,699.53 C731.71,702.11 728.83,705.34 726.67,708.53" id="Path" stroke="#0E3E32" stroke-width="6" stroke-linejoin="round"></path>
        <path d="M665.59,446.35 C667.33,453.87 677.24,453.7 683.27,454.25 C693.06,455.15 698.21,449.2 703.78,440.69" id="Path" stroke="#0E3E32" stroke-width="6" stroke-linejoin="round"></path>
        <path d="M611.85,560 C607.43,555.2 607.59,557.42 602.05,555.68 C605.59,546.42 615.38,516.47 595.05,516.28 C583.21,516.17 579.95,526.73 580.05,536.33 C580.05,540.33 580.1,544.94 582.72,548.18 C586.37,552.68 589.34,550.33 593.48,552.4" id="Path" stroke="#0E3E32" stroke-width="6" stroke-linejoin="round"></path>
        <path d="M585.67,553.14 C581.94,559.39 577.29,556.74 575.09,564.81 C573.19,571.81 575.02,579.03 574.42,587.11 C573.572647,596.394289 572.122927,605.61371 570.08,614.71 C568.95,620.08 567.54,621.22 572.26,623.15 C573.64,623.72 575.67,622.85 577.15,623.15 C580.15,623.77 580.79,624.82 583.54,626.01 C593.54,630.32 604.2,629.13 614.77,627.28 C614.56,609.96 610.77,584.86 610.63,567.07" id="Path" stroke="#0E3E32" stroke-width="6" stroke-linejoin="round"></path>
        <path d="M573.65,558.8 C565.14,561.86 567.52,575.23 567.13,582.19 C566.63,591.19 560.8,602.03 552.59,606.91 C548.43,609.38 543.59,608.84 541.81,614.12 C540.21,618.85 544.12,625.6 549.6,623.24 C552.32,622.07 556.17,612.92 558.8,610.43 C561.65,607.72 570.6,602.49 570.11,599.82" id="Path" stroke="#0E3E32" stroke-width="6" stroke-linejoin="round"></path>
        <path d="M614.67,627.4 C617.2,633.4 619.53,653.23 613.94,657.15 C610.79,659.36 600.83,657.76 597.26,657.15 C590.13,655.84 586.84,651.59 587.79,643.71" id="Path" stroke="#0E3E32" stroke-width="6" stroke-linejoin="round"></path>
        <path d="M569.41,650.74 C567.34,643.64 562.76,629.67 567.99,623.16" id="Path" stroke="#0E3E32" stroke-width="6" stroke-linejoin="round"></path>
        <path d="M570.11,651.44 C572.37,648.79 574.89,648.68 578.24,648.62 C582.46,648.53 586.49,652.62 589.24,651.44" id="Path" stroke="#0E3E32" stroke-width="6" stroke-linejoin="round"></path>
        <path d="M614.67,657.1 C622.88,660.04 621.67,672.1 624.52,678.35 C626.81,683.35 628.69,683.91 629.52,689.81 C630.09,693.81 629.9,698.13 630.9,702.04 C627.36,704.21 623,704.71 619.02,705.1 C616.48,698 618.88,689.4 616.81,682.03 C614.67,674.41 608.53,663.83 604.06,659.22" id="Path" stroke="#0E3E32" stroke-width="6" stroke-linejoin="round"></path>
        <path d="M582.84,650 C583.346025,659.109471 582.994478,668.246342 581.79,677.29 C581.045553,682.070081 580.687727,686.902404 580.72,691.74 C580.72,695.23 582.9,702.86 581.32,705.89 C577.95,712.32 555.94,712.16 560.32,702.28 C562.12,698.28 570.74,697.98 572.82,693.28 C574.47,689.55 571.89,684.28 571.5,680.72 C570.469589,670.038719 570.005606,659.31036 570.11,648.58" id="Path" stroke="#0E3E32" stroke-width="6" stroke-linejoin="round"></path>
        <path d="M730.6,541.06 C733.55,529.91 733.72,516.92 737.51,505.47 C737.93,505.4 737.96,505.73 737.61,506.47" id="Path" stroke="#0E3E32" stroke-width="6" stroke-linejoin="round"></path>
        <path d="M730.6,503.41 C734.08,501.85 739.68,503.8 742.87,505.13 C743.54,504.76 743.45,504.42 743.74,503.85" id="Path" stroke="#0E3E32" stroke-width="6" stroke-linejoin="round"></path>
        <path d="M709.15,440.81 C713.41,440.98 717.34,438.89 721.61,439.5 C726.2972,440.306454 730.914488,441.476657 735.42,443" id="Path" stroke="#0E3E32" stroke-width="6" stroke-linejoin="round"></path>
        <path d="M732.36,416.74 C734.72,421.51 740.83,422.94 743.5,427.21 C746.17,431.48 745.12,437.54 746.36,442.13" id="Path" stroke="#0E3E32" stroke-width="6" stroke-linejoin="round"></path>
        <path d="M736.73,436.87 C736.58,442.52 738.82,447.25 739.8,452.63" id="Path" stroke="#0E3E32" stroke-width="6" stroke-linejoin="round"></path>
        <path d="M728.85,439.06 C730.43,433.84 732.36,426.86 734.54,422.87" id="Path" stroke="#0E3E32" stroke-width="6" stroke-linejoin="round"></path>
        <path d="M711.34,438.19 C709.34,436.53 709.59,430.87 709.59,427.68" id="Path" stroke="#0E3E32" stroke-width="6" stroke-linejoin="round"></path>
        <path d="M717.47,418.49 C716.47,420.49 713.63,423.92 710.97,423.81 C709.36,430.47 701.26,431.23 704.78,439.06" id="Path" stroke="#0E3E32" stroke-width="6" stroke-linejoin="round"></path>
        <path d="M733.67,417.17 C734.49,411.69 737.2,407.7 735.53,401.85 C734.53,398.46 733.26,395.5 729.61,394.85 C726.19,394.23 721.86,396.34 720.97,399.67" id="Path" stroke="#0E3E32" stroke-width="6" stroke-linejoin="round"></path>
        <path d="M727.54,415 C727.1,412.6 726.42,409 725.25,406.78 C723.25,402.94 718.36,400.27 717.07,406.26 C716.3,409.8 719.02,414.32 720.07,417.62 C721.31,421.42 720.75,425.17 721.9,428.91 C724.33,425.22 726.96,419.91 727.07,415.43" id="Path" stroke="#0E3E32" stroke-width="6" stroke-linejoin="round"></path>
        <path d="M631.23,507.35 C630.4,510.82 628.08,518.27 631.7,519.75 C637.22,522 636.78,512.59 637.36,509.1" id="Path" stroke="#0E3E32" stroke-width="6" stroke-linejoin="round"></path>
        <path d="M626.86,446.07 C626.81,453.65 624.55,460.75 624.67,468.4 C624.79,476.4 628.06,486.21 632.53,492.83 C634.69,496.04 639.71,500.12 639.53,504.39 C639.35,509.87 633.15,509.57 629.53,507.47 C620.23,502.04 621.68,492.73 618.8,484.15 C615.92,475.57 610.8,464.26 614.1,455.26" id="Path" stroke="#0E3E32" stroke-width="6" stroke-linejoin="round"></path>
        <path d="M623.79,454.82 C620.79,451.6 615.79,454.82 612.94,456.54 C609.94,449.54 612.77,434.41 616.94,428.37 C620.37,423.44 625.07,421.45 630.24,418.93 C634.79,416.7 639.9,415.06 637.79,408.86" id="Path" stroke="#0E3E32" stroke-width="6" stroke-linejoin="round"></path>
        <path d="M629.48,551.13 C626.34,549.67 626.18,533.51 625.58,528.84 C625,524.34 624.58,519.84 623.89,515.45 C623.23,511.31 621.32,507.23 621.6,502.97" id="Path" stroke="#0E3E32" stroke-width="6" stroke-linejoin="round"></path>
        <path d="M639.55,500.35 C642.28,500.01 647.6,499.54 649.18,498.6" id="Path" stroke="#0E3E32" stroke-width="6" stroke-linejoin="round"></path>
        <path d="M636.49,417.61 C637.42,421.94 645.73,429.23 649.99,430.25 C650.1,426.86 653.67,426.91 654.87,424.18" id="Path" stroke="#0E3E32" stroke-width="6" stroke-linejoin="round"></path>
        <path d="M655.31,415.42 C657.71,416.42 659.78,417.58 660.56,420.24" id="Path" stroke="#0E3E32" stroke-width="6" stroke-linejoin="round"></path>
        <path d="M654.44,424.62 C653.53,421.79 654,418.08 654,414.99" id="Path" stroke="#0E3E32" stroke-width="6" stroke-linejoin="round"></path>
        <path d="M660.56,415.86 C666.32,409.25 668.04,392.41 660.36,386.98 C654.56,382.88 648.06,382.09 643.27,387.65 C640.69,390.65 636.42,400.52 638.27,404.04" id="Path" stroke="#0E3E32" stroke-width="6" stroke-linejoin="round"></path>
        <path d="M641.55,621.67 C639.04,623.17 631.71,624.6 629.55,621.23 C627.39,617.86 631.87,613.77 633.45,611.23 C637.73,604.37 638.45,589.46 636.05,581.45" id="Path" stroke="#0E3E32" stroke-width="6" stroke-linejoin="round"></path>
        <path d="M642.48,623.52 C646.26,617.52 646.68,604.18 645.24,596.43 C643.484001,586.310714 644.281433,575.913164 647.56,566.18" id="Path" stroke="#0E3E32" stroke-width="6" stroke-linejoin="round"></path>
        <path d="M363.88,587.69 C363.88,597.31 361.51,609.3 363.88,619.75 C365.11,625.17 366.06,631.28 368.14,636.38 C370.14,641.24 376.26,647.16 372.19,652.38 C369.67,650.58 367.48,653.43 365.44,651.53 C364.2,650.37 364.49,644.85 364.01,643 C362.38,636.7 358.8,630.94 356.52,624.87 C352.11,613.15 350.95,603.42 350.95,590.77" id="Path" stroke="#0E3E32" stroke-width="6" stroke-linejoin="round"></path>
        <path d="M351.48,576.32 C356.35,571.44 367.91,584.25 364.83,587.73 C363.78,588.93 356.83,586.14 354.83,586.84 C351.26,588.08 348.83,591.96 345.99,593.84 C345.93,593.6 345.49,592.06 345.79,592.84" id="Path" stroke="#0E3E32" stroke-width="6" stroke-linejoin="round"></path>
        <path d="M365.43,587.17 C372.72,601.02 373.35,619.76 369.57,635.24" id="Path" stroke="#0E3E32" stroke-width="6" stroke-linejoin="round"></path>
        <path d="M359.75,576.32 C359.59302,574.750604 359.212505,573.211706 358.62,571.75 C355.77,571.85 354.3,569.6 351.69,568.82 C348.12,567.76 344.38,569.17 341.14,567.01" id="Path" stroke="#0E3E32" stroke-width="6" stroke-linejoin="round"></path>
        <path d="M372.39,711.73 C372.39,701.04 375.96,692.06 375.64,681.38" id="Path" stroke="#0E3E32" stroke-width="6" stroke-linejoin="round"></path>
        <path d="M360.46,711.73 C359.87,707.36 360.82,703.18 360.82,698.59 C360.82,694.72 360.16,686.59 361.91,684.27" id="Path" stroke="#0E3E32" stroke-width="6" stroke-linejoin="round"></path>
        <path d="M361.55,709.56 C365.62,710.56 367.3,710.31 371.3,709.2" id="Path" stroke="#0E3E32" stroke-width="6" stroke-linejoin="round"></path>
        <path d="M311.31,708.48 C312.56,704.48 316.58,699.35 319.43,696.4 C323.49,692.22 330.53,687.7 333.36,682.82" id="Path" stroke="#0E3E32" stroke-width="6" stroke-linejoin="round"></path>
        <path d="M299,704.87 C302.88,701.8 304.66,695.78 307.48,691.68 C309.48,688.8 311.84,685.96 313.89,683.1 C315.28,681.18 319.18,677.38 319.6,676.32" id="Path" stroke="#0E3E32" stroke-width="6" stroke-linejoin="round"></path>
        <path d="M300.11,705.59 C303.9,707.2 305.64,709.59 310.59,709.59" id="Path" stroke="#0E3E32" stroke-width="6" stroke-linejoin="round"></path>
        <path d="M298.67,704.14 C295.56,704.66 294.31,708.87 293.61,710.65" id="Path" stroke="#0E3E32" stroke-width="6" stroke-linejoin="round"></path>
        <path d="M305.17,696.92 C305.88,700.52 309.98,703.04 313.48,701.61" id="Path" stroke="#0E3E32" stroke-width="6" stroke-linejoin="round"></path>
        <path d="M320,675.23 C321.15,678.58 325.82,681.95 329,682.48 C331.11,682.83 333.81,681.77 335.81,682.43 C339.23,683.55 340.13,685.36 344.02,685.43 C348.94,685.43 355.02,685.43 359.76,684.3 C362.76,683.58 364.63,682.71 367.6,682.43 C369.69,682.23 372.75,682.13 374.6,680.96 C377.3,679.22 376.36,676.83 376.01,673.48 C375.560141,668.928948 374.845598,664.407959 373.87,659.94 C373.51,658.16 373.21,655.09 372.42,654.32" id="Path" stroke="#0E3E32" stroke-width="6" stroke-linejoin="round"></path>
        <path d="M320.35,674.15 C324.6,672.73 324.76,663.02 325.96,659.36 C327.96,653.36 326.25,647.28 327.58,641.26" id="Path" stroke="#0E3E32" stroke-width="6" stroke-linejoin="round"></path>
        <path d="M336.25,682.1 C334.93,677.21 331.32,673.36 330.83,668" id="Path" stroke="#0E3E32" stroke-width="6" stroke-linejoin="round"></path>
        <path d="M361.19,642.35 C361.3,642.19 362.05,641.92 361.6,641.98 C356.14,642.66 350.2,640.13 344.6,640.44 C340.68,640.66 329.6,640.12 326.75,636.44 C324.98,634.09 326.75,629.09 327.44,626.66 C328.44,623.17 329.05,621.26 328.69,617.66 C327.951507,610.75866 328.069065,603.792492 329.04,596.92 C329.778645,591.839338 331.086883,586.857973 332.94,582.07 C334.94,577.07 338.21,573.81 340.62,569.43" id="Path" stroke="#0E3E32" stroke-width="6" stroke-linejoin="round"></path>
        <path d="M358.29,569 C358.229982,568.416664 358.25017,567.827855 358.35,567.25 C361.03,567.12 364.13,568.17 366.63,567.11 C370.63,565.41 372,560.54 372.4,556.7 C373.07,550.2 373.16,542.81 370.21,536.93 C366.84,530.21 359.02,524.98 351.52,524.93 C344.02,524.88 339.83,534.63 339.14,541.22 C338.512814,545.227523 339.27874,549.328933 341.31,552.84 C343.15,556.19 347.25,560.76 344.56,564.69" id="Path" stroke="#0E3E32" stroke-width="6" stroke-linejoin="round"></path>
        <path d="M337,540.8 C327.26,531.42 321.93,552.8 332.64,558.12 C328.04,550.4 338.14,549.12 337.36,541.88" id="Path" stroke="#0E3E32" stroke-width="6" stroke-linejoin="round"></path>
        <path d="M349.33,525.49 C345.22,512.36 344.38,497.37 339.52,484.16 C338.36,481 335.17,476.16 334.94,472.79 C334.71,469.42 337.68,466.73 338.73,463.7 C341.37,456.02 345.37,448.77 345.35,440.52 C345.380986,431.811058 343.385021,423.214373 339.52,415.41 C336.4,409.18 326.68,404.41 319.7,403.8 C304.7,402.48 294.04,418.92 295.13,433.35 C295.79,442.05 299.68,452.69 305.89,459.07 C309.4,462.68 316.42,466.55 321.06,468.78 C325.32,470.83 328.06,471.25 332.6,472.11" id="Path" stroke="#0E3E32" stroke-width="6" stroke-linejoin="round"></path>
        <rect id="Rectangle" stroke="#0E3E32" stroke-width="18" x="1" y="1" width="1125" height="714"></rect>
    </g>
</svg>