<?xml version="1.0" encoding="UTF-8"?>
<svg width="1002px" height="1500px" viewBox="0 0 1002 1500" version="1.1" xmlns="http://www.w3.org/2000/svg" xmlns:xlink="http://www.w3.org/1999/xlink">
    <!-- Generator: Sketch 52.1 (67048) - http://www.bohemiancoding.com/sketch -->
    <title>eating</title>
    <desc>Created with Sketch.</desc>
    <g id="Page-1" stroke="none" stroke-width="1" fill="none" fill-rule="evenodd">
        <path d="M568,870.960886 C575.96006,837.360779 579.712206,806.881001 585.807453,773" id="Path-78" stroke="#0D3E32" stroke-width="5" stroke-linecap="round" stroke-linejoin="round"></path>
        <path d="M833.87035,781.582378 C843.81318,756.948269 857.033447,760.449709 863.807092,782.417349" id="Path-17" stroke="#0D3E32" stroke-width="5" stroke-linecap="round" stroke-linejoin="round"></path>
        <path d="M824.144869,778.624909 C839.130747,747.828134 862.200648,747.429187 870.520797,782.931002" id="Path-18" stroke="#0D3E32" stroke-width="5" stroke-linecap="round" stroke-linejoin="round"></path>
        <path d="M729.548072,1060.67077 C732.021122,1018.09814 736.208487,1056.507 721.238297,1027.55221 C708.928513,1003.74308 726.108731,960.432204 741.930065,942.429264 C749.737461,933.545305 760,924.694144 771.64008,918.905807 L783.44969,915.973318 C784.663248,914.497858 780.868854,911.368275 779.340002,910.222713 C776.891421,908.388001 771.556359,907.225985 768.616882,906.376757 C765.871322,905.583552 730.716227,906.331223 723.766209,907.328793" id="Path-21" stroke="#0D3E32" stroke-width="5" stroke-linecap="round" stroke-linejoin="round"></path>
        <path d="M732.221079,1039.66424 C723.766209,1017.32523 775.1962,980.60688 794.327342,971.63362 C800.223906,968.867899 814.616624,963.387164 824.144869,963.387164 C825.797555,963.387164 835.26441,964.302802 833.87035,963.387164 C804.808446,944.298902 796.817165,942.798828 781.265512,937.451387 C776.226859,935.718844 764.650165,932.337221 754.512608,931.37263" id="Path-66" stroke="#0D3E32" stroke-width="5" stroke-linecap="round" stroke-linejoin="round"></path>
        <path d="M593.751967,975.154435 C602.838812,974.663723 601.574281,964.338435 609.910417,963.387164" id="Path-68" stroke="#0D3E32" stroke-width="5" stroke-linecap="round" stroke-linejoin="round"></path>
        <path d="M633.714116,942.827443 C648.882918,930.860319 665.49178,917.01877 680.589649,903.688904" id="Path-69" stroke="#0D3E32" stroke-width="5" stroke-linecap="round" stroke-linejoin="round"></path>
        <path d="M722.841138,1043.44453 C709.187388,1037.17228 709.187388,1003.54283 710.444279,998.493888 C717.044511,971.980708 722.841138,956.007591 744.148381,930.260533 C748.558366,924.931634 756.339168,916.787447 760.837538,912.43156 C762.26335,911.050909 742.184272,908.458551 738.267725,908.412748 C732.03122,908.339814 727.043097,907.328793 714.143458,907.328793 C711.047655,907.328793 703.099951,907.481295 697.795034,907.328793 C692.490118,907.176292 682.420315,904.748392 680.589649,903.688904" id="Path-70" stroke="#0D3E32" stroke-width="5" stroke-linecap="round" stroke-linejoin="round"></path>
        <path d="M760,912.626005 C766.051246,911.354672 772.473523,911.354672 783.696642,915.576145" id="Path-71" stroke="#0D3E32" stroke-width="5" stroke-linecap="round" stroke-linejoin="round"></path>
        <path d="M588.962559,928.262768 C588.604236,884.834095 592.649101,841.141551 599.885077,798.298104 C611.647405,728.654612 632.687614,693.317846 569.359351,642.746904 C565.155831,639.390173 558.696461,644.556829 553.635837,646.380919 C538.606098,651.798353 544.20652,652.692889 542.776966,670.165205 C542.659515,671.600723 536.804418,674.842029 533.990733,672.827713 C530.080104,670.028097 528.295777,656.09579 528.223324,655.689339 C523.896505,631.416683 534.023431,641.349636 553.866162,623.409849 C562.088773,615.975797 567.274704,609.377156 540.384478,623.409849 C524.778337,631.55393 532.402115,629.373521 533.413311,636.640735" id="Path-2" stroke="#0D3E32" stroke-width="5" stroke-linecap="round" stroke-linejoin="round"></path>
        <path d="M528.223324,653.357204 C525.357058,652.000847 521.251658,652.009827 519.624527,649.288131 C516.773633,644.51945 518.628407,628.081678 516.057051,633.00672 C511.310098,642.098784 514.535139,653.056564 510,662.256113 C508.319521,665.664972 499.918632,664.454849 497.965487,661.194549 C493.495601,653.733161 506.394326,618.552996 510,610.831306" id="Path-3" stroke="#0D3E32" stroke-width="5" stroke-linecap="round" stroke-linejoin="round"></path>
        <path d="M517.920123,632.42323 C513.157881,611.329554 515.58728,613.886589 533.990733,605.818145 C540.044535,603.164036 546.411009,600.521748 553.016519,600.276701 C555.897558,600.169823 569.745977,595.942019 573.435217,597.388254" id="Path-4" stroke="#0D3E32" stroke-width="5" stroke-linecap="round" stroke-linejoin="round"></path>
        <path d="M498.370239,643.93564 C481.54064,634.055689 493.176318,623.437659 503.079142,612.05347" id="Path-5" stroke="#0D3E32" stroke-width="5" stroke-linecap="round" stroke-linejoin="round"></path>
        <path d="M540.384478,584.014055 C542.348211,581.251862 544.068183,580.653349 546.891299,578.778256 C548.591419,577.649048 568.860799,569.064728 570.290887,570.783169 C576.370621,578.088777 585.780046,587.300005 591.828824,593.872878 C622.096637,626.763235 622.096637,621.401167 633.974414,641.885031 C645.443465,661.664023 641.076923,642.085924 654.003803,674.500565 C654.861261,676.650671 656.763054,679.972251 656.831629,682.286012 C657.072843,690.424662 655.447874,698.63928 656.519411,706.710688 C662.614764,752.624269 672.02402,798.053156 678.292791,843.943381 C680.681002,861.426156 681.080576,879.123377 682.474468,896.713375" id="Path-6" stroke="#0D3E32" stroke-width="5" stroke-linecap="round" stroke-linejoin="round"></path>
        <path d="M535,592.174988 C545.329186,589.811558 552.401379,582 560.664115,582" id="Path-7" stroke="#0D3E32" stroke-width="5" stroke-linecap="round" stroke-linejoin="round"></path>
        <path d="M590.436638,907.328793 C612.573964,914.562955 637.413243,922.514906 660.470763,919.97619" id="Path-8" stroke="#0D3E32" stroke-width="5" stroke-linecap="round" stroke-linejoin="round"></path>
        <path d="M692.341087,906.376757 C696.266645,895.767313 696.266645,896.713375 701.913877,887.516344 C702.267582,886.940303 705.793584,882.363414 705.793584,881.742256 C705.793584,877.95556 680.994363,845.992625 678.88859,852.210616" id="Path-9" stroke="#0D3E32" stroke-width="5" stroke-linecap="round" stroke-linejoin="round"></path>
        <path d="M681.931925,885.084527 C687.912548,880.132641 700.069274,882.130661 695.101391,879.561847" id="Path-10" stroke="#0D3E32" stroke-width="5" stroke-linecap="round" stroke-linejoin="round"></path>
        <path d="M591.828824,942.798828 C585.981743,934.857505 584.337859,932.503981 577.728274,911.782301 C576.383772,907.567156 577.375891,905.427307 575.759339,901.804649 C568.734301,886.061688 575.759339,880.533723 574.049931,876.087719 C573.655583,875.06206 568.00539,871.241061 567.89039,872.145385 C565.233275,893.039971 564.417886,899.185529 563.017469,904.423044 C558.659721,920.720876 557.650335,922.715766 553.016519,935.822543" id="Path-11" stroke="#0D3E32" stroke-width="5" stroke-linecap="round" stroke-linejoin="round"></path>
        <path d="M306.256659,998.493888 C298.97578,981.420562 309.458377,997.362871 306.256659,973.49346 C305.377703,966.940683 298.01598,952.001796 298.01598,949.216326 C298.01598,902.538723 295.345251,928.819086 303.697493,893.534891 C306.366065,882.261464 300.45268,877.112333 299.669367,865.041142 C297.894209,837.685226 303.135968,816.557727 300.831228,790.610371" id="Path-12" stroke="#0D3E32" stroke-width="5" stroke-linecap="round" stroke-linejoin="round"></path>
        <path d="M402.937668,603.682169 C387.851235,606.968188 387.851235,619.793947 381.716214,626.915906 C372.854609,637.203073 384.65896,628.915616 366.05112,632.42323 C359.270415,633.701406 354.952461,644.171012 354.151037,644.50761 C346.394051,643.944391 341.023683,643.944391 338.535602,644.50761 C329.849553,646.473842 329.329543,651.315 321.652213,653.43721 C318.270314,654.372054 314.688106,656.66136 311.449631,658.011715 C307.024993,659.856667 288.230131,666.34765 284.02797,668.654837 C260.987131,681.305361 250.831841,683.396411 234.742546,706.783036 C208.937365,744.292206 205.356982,839.453227 204.760153,884.378197 C204.550826,900.134801 204.958206,1014.77116 215.611015,1030.18921 C218.443329,1034.28849 223.155763,1036.8919 225.83744,1041.09126 C245.989774,1072.64873 236.462683,1076.1766 274.799396,1085.57467 C287.938746,1088.71967 297.210767,1090.09021 302.615459,1089.6863 C310.722497,1089.08043 328.539525,1088.9463 340.017948,1084.78602 C352.816968,1080.1471 363.970909,1079.00292 376.943717,1074.87487 C384.495722,1072.47176 419.906997,1061.94248 429.890911,1058.60378 C441.803944,1054.61998 455.654109,1047.59259 467.32193,1042.18695" id="Path-13" stroke="#0D3E32" stroke-width="5" stroke-linecap="round" stroke-linejoin="round"></path>
        <path d="M402.941933,618.921073 C385.903947,643.086961 421.717362,674.830472 437.592651,687.908343 C440.240968,690.089995 463.986569,705.08731 471.025195,702.807192 C484.415963,698.469337 500.06442,677.93625 507.376002,664.297296" id="Path-14" stroke="#0D3E32" stroke-width="5" stroke-linecap="round" stroke-linejoin="round"></path>
        <path d="M477.312839,700.07139 C483.152226,708.474027 508.36041,733.469405 513.592469,731.690931 C516.393964,730.738651 515.452537,721.536338 516.36415,715.447679 C520.293936,689.200659 531.928537,671.684309 519.000091,646.688019" id="Path-15" stroke="#0D3E32" stroke-width="5" stroke-linecap="round" stroke-linejoin="round"></path>
        <path d="M470.032227,704.508241 C452.011719,704.991087 442.078651,722.95717 434.15699,737.233494 C433.063233,739.204649 432.736215,747.106698 429.362758,748.450678 C422.928491,751.014079 413.505181,716.529741 407.589378,709.925 C389.904912,690.181048 346.664565,661.807981 372.182309,632.42323" id="Path-16" stroke="#0D3E32" stroke-width="5" stroke-linecap="round" stroke-linejoin="round"></path>
        <path d="M297.609623,999.876844 C324.361055,995.726952 351.902967,1001.79565 378.647991,999.876844 C409.37502,997.672353 441.572137,986.698168 471.093567,981.477032 C506.284422,975.253205 497.706414,949.216326 533.990733,949.216326" id="Path-19" stroke="#0D3E32" stroke-width="5" stroke-linecap="round" stroke-linejoin="round"></path>
        <path d="M531.125882,949.071838 C545.167561,927.805078 544.812793,935.570621 572.150539,939.734917 C578.838993,940.753754 583.780659,941.585817 590.436638,942.798828 C593.444571,943.347005 598.140059,943.317635 601.189226,943.542883 C611.720752,944.320869 625.456643,941.134949 632.057401,942.798828 C638.658158,944.462707 635.043461,951.150298 632.057401,954.880684 C630.066694,957.367608 626.768538,959.11018 622.162933,960.1084 C606.472976,963.63784 595.460269,962.658702 579.850233,963.63784 C573.332073,964.046691 567.359015,961.15729 562.270542,962.658702 C558.149798,963.874574 570.52207,965.213028 574.337789,967.187657 C578.592735,969.389584 581.910999,973.259507 586.330302,975.10959 C593.97375,978.309421 602.679059,978.623113 610.160874,982.184525 C611.926514,983.024986 614.620518,985.46402 615.046353,987.37256 C615.415971,989.029146 615.389022,991.135302 615.046353,992.797672 C614.770293,994.136905 611.44991,998.852631 610.160874,999.308856 C607.460185,1000.2647 602.346427,1000.26325 599.010867,998.493888" id="Path-20" stroke="#0D3E32" stroke-width="5" stroke-linecap="round" stroke-linejoin="round"></path>
        <path d="M518.529807,968.298415 C523.896505,971.161312 549.281443,968.854779 563.780193,973.555098 C568.465611,975.074053 574.1419,977.418216 578.836252,978.90933 C591.625098,982.971581 600.825621,977.967483 601.187665,994.072408 C601.470014,1006.63226 563.359828,992.809918 563.3268,992.801909 C559.221544,991.806468 556.945166,991.149869 556.497663,990.83211" id="Path-22" stroke="#0D3E32" stroke-width="5" stroke-linecap="round" stroke-linejoin="round"></path>
        <path d="M514.156004,983.744 C527.178202,982.941842 540.386456,979.002021 553.222597,981.337526 C556.656392,981.962296 556.966936,987.990799 556.162183,991.386922 C555.516947,994.109871 552.352755,996.117919 549.60043,996.623371 C537.576874,998.831439 529.450759,995.728209 517.258953,996.623371 C509.131082,997.220145 502.389874,998.115307 497.035328,999.308856 C488.923236,999.800036 475.610365,1003.92761 467.791541,1004.47843" id="Path-23" stroke="#0D3E32" stroke-width="5" stroke-linecap="round" stroke-linejoin="round"></path>
        <path d="M507,1060.67077 C505.692964,1068.78369 502.397779,1069.10788 500.704609,1077.14909 C500.301697,1079.0626 500.336303,1085.64112 478.786313,1097.09741 C476.919768,1098.08969 464.885709,1099.11979 462.657742,1099.11979 C439.270719,1099.11979 443.632299,1108.52423 404.125824,1106.43433" id="Path-24" stroke="#0D3E32" stroke-width="5" stroke-linecap="round" stroke-linejoin="round"></path>
        <path d="M217.845784,1029.31256 C212.547852,1041.06188 197.741601,1057.78756 198.917843,1071.62266 C199.044716,1073.11495 200.477761,1074.43791 201.857429,1075.02062 L218.827307,1078.69759 C230.271396,1083.53107 240.397616,1091.13016 251.780559,1096.10592 C272.931539,1105.35153 359.676014,1086.94526 402.937668,1105.69552" id="Path-25" stroke="#0D3E32" stroke-width="5" stroke-linecap="round" stroke-linejoin="round"></path>
        <path d="M480,1097 C484.514381,1111.93335 492.604924,1115.61979 496.560705,1130.48369" id="Path-26" stroke="#0D3E32" stroke-width="5" stroke-linecap="round" stroke-linejoin="round"></path>
        <path d="M222.096674,1081.43984 C201.967443,1101.22529 188.305143,1139.17118 179.652416,1164.59459 C172.638747,1185.20213 164.735865,1216.13745 168.546493,1238.06461 C176.725137,1285.12626 195.770084,1330.78153 239.383725,1353.65793 C241.167159,1354.59338 269.012939,1364.52066 280.472589,1370.18835 C286.451906,1373.14558 291.257625,1378.33983 297.48931,1380.71966 C314.944095,1387.3855 318.035196,1381.40556 329.286541,1390.45375 C331.538579,1392.26481 332.863239,1395.0925 335.197949,1396.79566 C339.343939,1399.82013 347.647948,1399.43755 348.5315,1404.49284 C353.361764,1432.12949 350.054277,1460.58554 351.246044,1488.61579 C351.297279,1489.82086 351.297279,1492.66043 351.246044,1497.13451" id="Path-27" stroke="#0D3E32" stroke-width="5" stroke-linecap="round" stroke-linejoin="round"></path>
        <path d="M220.557309,1495.29253 C221.060888,1476.19639 221.78955,1457.10486 222.068046,1438.0041 C222.132458,1433.58636 222.068046,1426.18828 222.068046,1421.59788" id="Path-28" stroke="#0D3E32" stroke-width="5" stroke-linecap="round" stroke-linejoin="round"></path>
        <path d="M169.814077,1490.31388 C173.42452,1470.84966 170.232141,1419.60091 171.171349,1420.28805" id="Path-29" stroke="#0D3E32" stroke-width="5" stroke-linecap="round" stroke-linejoin="round"></path>
        <path d="M222.096674,1461.51903 C238.164003,1462.59323 247.361434,1462.44875 256.823542,1463.17398 C272.701047,1464.39094 280.042507,1462.31323 295.943301,1463.17398 C314.924347,1464.20147 332.022164,1463.41083 351.014842,1464.19443" id="Path-30" stroke="#0D3E32" stroke-width="5" stroke-linecap="round" stroke-linejoin="round"></path>
        <path d="M346.781596,1421.25047 C313.298934,1423.51458 263.056116,1421.3882 257.544461,1421.25047 C213.226646,1420.14301 181.758215,1419.58929 163.139169,1419.58929 C162.615659,1413.45021 162.353904,1406.41155 162.353904,1398.4733 C162.353904,1395.43276 200.1357,1400.7058 215.79487,1400.64226 C232.377376,1400.57497 248.021751,1400.77408 264.603869,1400.64226 C291.060913,1400.43193 317.677596,1401.00796 343.987013,1400.64226" id="Path-31" stroke="#0D3E32" stroke-width="5" stroke-linecap="round" stroke-linejoin="round"></path>
        <path d="M162.353904,1397.52806 C172.528621,1377.89801 176.700769,1375.42203 187.876699,1354.87387 C192.200817,1346.92351 198.851589,1337.14407 204.725434,1327.94416" id="Path-32" stroke="#0D3E32" stroke-width="5" stroke-linecap="round" stroke-linejoin="round"></path>
        <path d="M410.906807,1495.29253 C419.437677,1461.51903 423.224955,1449.57711 428.037813,1426.72608 C429.519353,1419.69187 449.351893,1346.02254 450.363895,1342.22846 C456.447069,1319.42213 461.144996,1305.83081 465.790437,1283.39719 C467.919659,1273.11481 477.633727,1222.27708 480,1211.39423 C486.027173,1183.67435 490.197195,1170.85974 493.765988,1155.11909 C499.212488,1131.09655 507.942406,1087.14889 513.025011,1062.48455" id="Path-33" stroke="#0D3E32" stroke-width="5" stroke-linecap="round" stroke-linejoin="round"></path>
        <path d="M1000,1114.81913 C987.183616,1092.54808 972.892764,1070.03919 959.158432,1045.49158 C941.080191,1013.18004 920.512664,981.173695 901.839612,949.216326 C900.398952,946.750756 888.66167,926.827955 876.849116,908.328793" id="Path-34" stroke="#0D3E32" stroke-width="5" stroke-linecap="round" stroke-linejoin="round"></path>
        <path d="M693.463765,862.190384 C723.829644,862.190384 708.672355,861.184132 752.135416,862.190384 C754.146744,862.236951 764.072551,862.236951 786.079096,862.190384" id="Path-35" stroke="#0D3E32" stroke-width="5" stroke-linecap="round" stroke-linejoin="round"></path>
        <path d="M788.976874,843.014738 C792.745649,877.753336 788.976874,856.703364 792.745649,896.713375 C793.20401,901.579422 792.870911,905.467673 794.705285,909.998963 C795.394894,911.70244 817.7115,918.078024 835.336875,919.268531 C852.9151,920.455853 860.90696,922.923399 871.946799,915.357647 C876.611789,912.160666 876.624503,911.125496 876.849116,909.998963 C879.544558,896.480125 881.552486,890.692543 883.059636,882.403027 C889.100446,849.177817 887.096335,853.638472 889.071197,851.152307 C902.991941,833.627409 900.115805,851.840608 905.840552,835.749585 C906.62919,833.532895 904.206267,825.556534 903.527941,823.28206 C899.849941,810.94947 907.516131,816.567452 891.562751,805.393058 C889.841108,804.18715 889.071197,800.781 889.071197,792.89614 C889.071197,785.064231 884.054123,787.74887 881.412164,786.979009 C877.43786,785.820906 874.080863,785.064231 871.946799,782.521707 C868.992802,779.002314 868.170629,784.77593 864.166793,782.521707 C862.089069,781.351915 858.971042,780.16795 857.450736,778.331099 C856.190689,776.808697 850.563839,779.410787 848.908635,778.331099 C845.999656,776.433576 838.237528,782.724945 835.336875,780.814718 C831.868838,778.53084 830.256995,787.120934 826.106906,786.979009 L822.905857,778.331099 C814.210605,778.033738 819.180688,776.450562 813.553877,782.521707 C806.69466,789.922578 809.908972,775.389641 800.882617,780.814718 C797.687929,782.73481 794.358696,783.618822 792.745649,786.979009 C791.609309,789.346153 788.460422,791.789829 786.079096,792.89614 C782.248505,794.675747 783.939641,800.253136 780.102511,802.018599 C775.474141,804.14811 779.046609,812.61372 778.393104,814.164367 C777.827793,815.505746 772.863426,813.335073 771.667121,814.164367 C768.90106,816.081835 773.147036,824.782894 771.667121,827.805746 C770.755619,829.667565 775.3666,831.410197 776.034027,833.372784 C785.403094,860.922795 787.989586,827.882626 800.882617,844.955266 L801.65821,846.075578 C807.989296,849.313194 811.284312,846.075578 820.90314,848.116287 C830.521968,850.156996 829.635961,842.848615 843.605013,846.075578 C867.894905,851.686737 862.83342,851.345527 893.208736,846.075578" id="Path-36" stroke="#0D3E32" stroke-width="5" stroke-linecap="round" stroke-linejoin="round"></path>
        <path d="M838.556061,1130.48369 C858.116097,1134.55771 861.206245,1136.20924 879.800316,1145.84451 C917.458274,1165.35852 858.153345,1189.5836 845.986788,1198.85881 C843.00843,1201.12937 840.252931,1208.1046 837.259014,1209.59761 C804.564705,1225.90168 755.659613,1221.97409 722.313037,1216.33105 C703.177726,1213.09289 707.632773,1211.7107 701.218968,1205.80406 L698.559203,1201.82761 C682.73876,1190.69408 663.746534,1180.04581 648.882918,1160.74271" id="Path-37" stroke="#0D3E32" stroke-width="5" stroke-linecap="round" stroke-linejoin="round"></path>
        <path d="M723.766209,1177.03946 C695.525975,1170.46944 652.646153,1161.30173 624.54787,1154.14893 C617.293754,1152.3023 617.435741,1140.34015 627.579759,1141.77218 C643.028718,1143.95313 707.958517,1157.34017 720.466324,1171.74481" id="Path-39" stroke="#0D3E32" stroke-width="5" stroke-linecap="round" stroke-linejoin="round"></path>
        <path d="M647.205119,1145.84451 C650.659347,1142.63181 656.772257,1132.99305 666.339394,1130.48369" id="Path-40" stroke="#0D3E32" stroke-width="5" stroke-linecap="round" stroke-linejoin="round"></path>
        <path d="M721.987732,1174.03013 C725.873973,1183.53051 757.26644,1186.28633 757.519584,1186.3106 C763.314329,1186.86616 780.285361,1186.87659 786.079096,1186.3106 C796.365509,1185.30572 806.182086,1185.65124 814.634656,1179.70362 C821.453201,1174.90578 823.907445,1170.88631 827.157941,1163.20867 C828.213574,1160.71528 833.820571,1146.39061 835.336875,1141.6678 C837.070661,1136.26759 839.557403,1126.41953 841.204284,1120.99219 C842.065883,1118.15277 844.072655,1108.58914 844.729627,1105.69552 C845.933259,1100.39414 845.953314,1089.0741 845.967355,1088.736 C846.173103,1083.7817 844.753567,1079.59542 841.305278,1076.25984 C837.140408,1072.2311 829.661058,1069.24264 824.144869,1067.58591 C803.025674,1061.24299 796.056818,1061.24299 779.704378,1059.80443 C776.28573,1059.50369 754.825378,1059.80443 748.956189,1059.80443 C742.704376,1059.80443 725.319376,1060.81403 716.739661,1063.46767 C708.159945,1066.1213 695.954612,1071.98857 693.463765,1076.25984 C691.916523,1078.91303 696.193451,1095.5921 693.463765,1097 C690.334938,1098.61377 681.769964,1093.6723 674.727866,1097 C667.685767,1100.3277 660.955672,1111.84131 664.931523,1124.60787 C674.727866,1156.06419 695.254748,1146.73531 699.379779,1147.7862 C706.022337,1149.47845 706.022337,1151.05013 714.143458,1163.20867 L721.987732,1174.03013 Z" id="Path-41" stroke="#0D3E32" stroke-width="5" stroke-linecap="round" stroke-linejoin="round"></path>
        <path d="M678.43761,1126.69426 C683.161326,1125.73662 687.885042,1124.77898 692.608758,1123.82133" id="Path-38" stroke="#0D3E32" stroke-width="5" stroke-linecap="round" stroke-linejoin="round"></path>
        <path d="M697.795034,1137.65327 C689.278989,1148.93471 673.756795,1129.83832 674.309183,1114.81913 C674.659878,1105.28388 685.599613,1109.1 689.286789,1114.81913 C690.97678,1117.44045 693.812862,1125.05183 697.795034,1137.65327 Z" id="Path-42" stroke="#0D3E32" stroke-width="5" stroke-linecap="round" stroke-linejoin="round"></path>
        <path d="M699.379779,1084.40124 C716.739661,1098.49971 777.23518,1098.49971 799.234525,1094.3816 C820.66028,1090.37086 833.80954,1086.9038 836.263846,1080.3466" id="Path-43" stroke="#0D3E32" stroke-width="5" stroke-linecap="round" stroke-linejoin="round"></path>
        <path d="M406.892954,1105.69552 C413.617905,1088.94723 435.715817,1077.9801 446.644768,1065.45825 C451.818794,1059.5301 454.23647,1051.50052 459.53327,1045.68182" id="Path-44" stroke="#0D3E32" stroke-width="5" stroke-linecap="round" stroke-linejoin="round"></path>
        <path d="M467.786049,977.415338 C471.804815,941.787035 466.961588,993.585112 465.860135,929.494307 C465.127895,886.887075 470.378147,844.340618 471.641855,801.783148" id="Path-45" stroke="#0D3E32" stroke-width="5" stroke-linecap="round" stroke-linejoin="round"></path>
        <path d="M475.195246,753.977512 C472.751764,741.284718 484.307531,711.392433 470.032227,704.466147" id="Path-46" stroke="#0D3E32" stroke-width="5" stroke-linecap="round" stroke-linejoin="round"></path>
        <path d="M436.163659,741.769447 C450.710414,752.362812 470.779676,765.000172 485.27446,747.089893 C489.252635,742.174316 492.639797,739.790168 496.634068,733.165952 L500.704609,725.271111" id="Path-47" stroke="#0D3E32" stroke-width="5" stroke-linecap="round" stroke-linejoin="round"></path>
        <path d="M364.319561,652.711854 C361.59366,675.410092 368.41488,683.791526 387.022167,707.148182 C396.423213,718.948773 378.842733,724.846959 385.291817,734.12268 C389.041812,739.516298 393.283698,749.503513 397.498156,754.542553 C419.081305,780.348562 414.24317,780.08251 450.739325,796.69778 C477.595426,808.924312 501.138692,784.478368 513.502625,764.486475 C520.448812,753.254821 541.816068,706.157233 537.596442,695.320706 C535.421657,689.735585 530.515081,687.526479 529.220662,681.731591 C527.826229,675.488954 529.65979,670.742052 526.185249,652.711854" id="Path-48" stroke="#0D3E32" stroke-width="5" stroke-linecap="round" stroke-linejoin="round"></path>
        <path d="M402.937668,620.751236 C402.74519,598.885702 403.616079,611.639804 398.421321,582.66669" id="Path-49" stroke="#0D3E32" stroke-width="5" stroke-linecap="round" stroke-linejoin="round"></path>
        <path d="M537.295808,451.358838 C548.758458,425.261485 536.809411,438.657118 537.295808,420.660414 C537.489447,413.495795 528.616487,396.145704 517.533516,387.760224 C511.163437,382.940562 496.457018,379.737824 490.640382,375.333105 C489.235898,374.269543 472.701395,356.73453 425.953331,356.73453 C411.385262,356.73453 387.28675,357.059383 374.250775,365.534712 C370.439564,368.012568 357.644928,375.772874 353.113542,378.998317 C327.252744,397.406046 311.40444,422.014913 304.45781,451.358838 C300.921389,466.297372 311.792588,499.232199 319.260427,511.466826 C348.217299,558.907126 339.251167,587.390374 359.939683,610.554046 C365.997699,617.336838 375.725076,637.684833 379.711135,629.510657 L384.459095,620.751236 C386.186224,617.209428 389.805398,586.935898 391.605403,583.430565 C394.417438,577.954405 400.248958,588.196955 402.937668,582.66669 C448.74314,488.451866 458.331143,490.003484 475.164314,408.031023 C476.876853,399.691472 480.49222,394.008812 487.57,390.325108 C488.536801,389.821927 496.969133,392.932594 497.788569,393.651218 C498.334859,394.130301 503.413673,397.745197 513.025011,404.495906 C521.025819,411.331783 523.749529,411.331783 531.050723,426.13447 C542.334501,449.011582 531.8106,442.795285 537.7954,476.200269 C538.980664,482.815982 545.258407,489.005573 546.448515,495.64926 C554.667837,541.532994 553.03825,620.751236 486.027173,610.554046 C474.272918,608.765381 461.647468,605.903899 450.363895,602.061357" id="Path-50" stroke="#0D3E32" stroke-width="5" stroke-linecap="round" stroke-linejoin="round"></path>
        <path d="M506.475427,476.200269 C490.034726,496.456453 539.766333,529.510696 518.524326,530.563561" id="Path-51" stroke="#0D3E32" stroke-width="5" stroke-linecap="round" stroke-linejoin="round"></path>
        <path d="M507.442651,483.487139 C512.741495,474.070603 524.463108,467.055554 533.990733,474.171932" id="Path-62" stroke="#0D3E32" stroke-width="5" stroke-linecap="round" stroke-linejoin="round"></path>
        <path d="M507,483.360432 C528.223324,482.243173 529.220662,484.381806 533.990733,474.151647" id="Path-63" stroke="#0D3E32" stroke-width="5" stroke-linecap="round" stroke-linejoin="round"></path>
        <path d="M521.025819,473.256979 C521.70644,483.196614 529.281804,482.802912 529.220662,472.151971" id="Path-64" stroke="#0D3E32" stroke-width="5" stroke-linecap="round" stroke-linejoin="round"></path>
        <path d="M450.363895,488.631072 C460.216326,485.16201 463.28445,485.768751 471.025195,492.869594 L470.032227,493.265587 C462.160781,495.676702 454.97248,498.277797 445.275139,500.297546" id="Path-65" stroke="#0D3E32" stroke-width="5" stroke-linecap="round" stroke-linejoin="round"></path>
        <path d="M462.261604,487.047099 C462.481925,494.209989 463.96683,491.669048 459.278719,495.356989 L458.044971,495.8087 C452.833381,495.8087 452.833381,491.632037 452.833381,488.800215" id="Path-67" stroke="#0D3E32" stroke-width="5" stroke-linecap="round" stroke-linejoin="round"></path>
        <path d="M491.477971,516.660374 C489.972522,518.318357 487.645208,519.501721 486.961624,521.634325 C486.531399,522.976511 477.312839,537.005822 496.560705,537.005822 C502.640745,537.005822 491.772998,532.840402 499.659024,532.372056 C499.79168,532.364177 507.283237,533.518002 508.341654,536.213969 C508.487978,536.586681 507.739474,536.741871 507.438384,537.005822" id="Path-52" stroke="#0D3E32" stroke-width="5" stroke-linecap="round" stroke-linejoin="round"></path>
        <path d="M517.258953,534.180618 C518.865261,528.442357 518.996919,531.151914 517.378327,526.043235" id="Path-53" stroke="#0D3E32" stroke-width="5" stroke-linecap="round" stroke-linejoin="round"></path>
        <path d="M493.765988,507.846533 C489.342238,495.322958 492.711737,500.028579 485.27446,492.701848" id="Path-54" stroke="#0D3E32" stroke-width="5" stroke-linecap="round" stroke-linejoin="round"></path>
        <path d="M509.12811,582.791917 C514.375565,578.368381 511.485637,579.503435 517.533516,578.778256" id="Path-55" stroke="#0D3E32" stroke-width="5" stroke-linecap="round" stroke-linejoin="round"></path>
        <path d="M510,541 C510.146365,541.288299 517.063922,550.998492 511.386972,549.477043" id="Path-56" stroke="#0D3E32" stroke-width="5" stroke-linecap="round" stroke-linejoin="round"></path>
        <path d="M481,564.359315 C492.856021,560.151917 494.062661,552.885825 503.526496,551.14031 C506.121855,550.66162 509.673675,553.438173 511.759347,552.950033 C519.491753,551.14031 511.759347,547.251862 530.65979,554.378831" id="Path-57" stroke="#0D3E32" stroke-width="5" stroke-linecap="round" stroke-linejoin="round"></path>
        <path d="M481,563.34885 C501.86195,571.385493 519.120599,580.556671 529.220662,555.378831" id="Path-58" stroke="#0D3E32" stroke-width="5" stroke-linecap="round" stroke-linejoin="round"></path>
        <path d="M486.027173,563.123585 C520.056595,559.243017 509.654594,562.485291 529.65979,554.378831" id="Path-59" stroke="#0D3E32" stroke-width="5" stroke-linecap="round" stroke-linejoin="round"></path>
        <path d="M507.380964,468.849315 C507.246668,464.322634 507.514342,463.92489 511.272338,461.154387 C516.432411,457.350232 526.104,452.22916 531.508698,454.549777 C533.345487,455.33844 536.557871,456.950278 535,458.202803 C532.890491,459.898843 530.461107,456.485646 527.924859,457.431176 C521.052114,459.993379 519.935965,461.643667 513.620634,465.374096 L507.380964,468.849315 Z" id="Path-60" stroke="#0D3E32" stroke-width="5" stroke-linecap="round" stroke-linejoin="round"></path>
        <path d="M458.044971,471.250105 C463.939103,471.174489 471.025195,470.63825 474.581175,473.256979 L474.581175,477.439783 C470.032227,477.439783 461.093513,475.241381 456.447069,477.099508" id="Path-61" stroke="#0D3E32" stroke-width="5" stroke-linecap="round" stroke-linejoin="round"></path>
        <path d="M304.45781,996.764198 C300.263288,994.492783 293.429808,996.697188 287.848206,998.493888 C280.170792,1000.96522 260.819049,1020.9053 258.25714,1027.85517 C254.010977,1039.37403 262.008612,1028.03888 260.126355,1040.27663 C259.51771,1044.23381 256.558393,1047.47996 255.347513,1051.29618 C252.064624,1061.64256 255.067339,1068.93576 256.57661,1080.3466" id="Path" stroke="#0D3E32" stroke-width="5" stroke-linecap="round" stroke-linejoin="round"></path>
        <path d="M721.698656,1043.44453 C705.120391,1036.2664 677.089261,1024.16576 653.125228,1016.59918 C647.2521,1014.74476 625.345314,1007.83654 609.910417,1000.26325" id="Path-72" stroke="#0D3E32" stroke-width="5" stroke-linecap="round" stroke-linejoin="round"></path>
        <path d="M470.032227,1006.16487 C493.765988,1009.31627 517.258953,1014.2204 545.715055,1021.75476 C571.45104,1028.56892 574.125217,1031.58955 596.588693,1035.97166 C599.26368,1036.49349 605.745983,1036.19588 609.910417,1035.97166 C645.069182,1034.07868 679.659498,1034.15681 714.143458,1039.66424" id="Path-73" stroke="#0D3E32" stroke-width="5" stroke-linecap="round" stroke-linejoin="round"></path>
        <path d="M589.462627,1095.8423 C586.074615,1074.64501 590.977524,1055.2506 595.481121,1037.17228" id="Path-75" stroke="#0D3E32" stroke-width="5" stroke-linecap="round" stroke-linejoin="round"></path>
        <path d="M468.458203,1006.16487 C468.286834,1009.45015 466.243502,1050.14848 470.290885,1052.03333 C479.227722,1056.19519 489.742189,1055.41427 499.266013,1057.96082 C530.801082,1066.39289 558.141854,1085.44586 589.037196,1094.3816" id="Path-76" stroke="#0D3E32" stroke-width="5" stroke-linecap="round" stroke-linejoin="round"></path>
        <path d="M663.746534,1167.11577 C677.921169,1177.56326 698.384254,1184.71073 711.744776,1189.41585 C716.632799,1191.13724 743.495838,1196.07867 754.172799,1196.07867 C790.85551,1196.07867 783.142826,1197.6335 812.75757,1193.77405 C820.348536,1192.78479 842.517682,1185.62336 845.735256,1183.93322 C853.26424,1179.97836 879.913687,1170.46305 882.701573,1158.26861" id="Path-77" stroke="#0D3E32" stroke-width="5" stroke-linecap="round" stroke-linejoin="round"></path>
        <path d="M589.037196,1095.8423 C644.868447,1084.78301 679.677303,1079.61777 693.463765,1080.3466" id="Path-74" stroke="#0D3E32" stroke-width="5" stroke-linecap="round" stroke-linejoin="round"></path>
        <rect id="Rectangle" stroke="#0D3E32" stroke-width="12" x="1.5" y="1.5" width="997" height="1497"></rect>
    </g>
</svg>