<svg xmlns="http://www.w3.org/2000/svg" viewBox="0 0 556.81 210"><defs><style>.cls-1{fill:#0e3e32;}</style></defs><title>logo_text</title><g id="letters"><path class="cls-1" d="M78.81,146.37a20.06,20.06,0,0,1-20,20h-30a20.06,20.06,0,0,1-20-20v-100a20.06,20.06,0,0,1,20-20h30a20.06,20.06,0,0,1,20,20v20h-20v-20h-30v100h30v-20h20Z"/><path class="cls-1" d="M153,130.37H111v18h35.4v18H111a18.18,18.18,0,0,1-18-18v-58a17.92,17.92,0,0,1,18-18h24a17.68,17.68,0,0,1,18,18Zm-18-18v-22H111v22Z"/><path class="cls-1" d="M225.6,166.37h-18v-76h-24v76h-18v-94h18v9.2c2.21-6.2,7-9.2,14.4-9.2h9.6a17.68,17.68,0,0,1,18,18Z"/><path class="cls-1" d="M283.6,166.37h-18a18.18,18.18,0,0,1-18-18v-58h-14v-18h14v-28h18v28h18v18h-18v58h18Z"/><path class="cls-1" d="M336.6,90.37h-24v76h-18v-94h18v9.2c2.2-6.2,7-9.2,14.4-9.2h9.6Z"/><path class="cls-1" d="M404.8,148.37a17.92,17.92,0,0,1-18,18h-24a18.18,18.18,0,0,1-18-18v-58a17.92,17.92,0,0,1,18-18h24a17.68,17.68,0,0,1,18,18Zm-18,0v-58h-24v58Z"/><path class="cls-1" d="M477,148.37a18.18,18.18,0,0,1-18,18h-9.6c-7.4,0-12.2-3-14.4-9.2v39.2H417v-124h18v9.2c2.2-6.2,7-9.2,14.4-9.2H459a18.18,18.18,0,0,1,18,18Zm-18,0v-58H435v58Z"/><path class="cls-1" d="M547,166.37H529v-7.6c-1.4,5-8,7.6-11.8,7.6H505.4c-9.8,0-18.4-8.2-18.4-18v-22c0-11,7.8-18,18-18h12.2c6.6,0,10.4,2.6,11.8,7.6V90.37H493.8v-18H529a17.68,17.68,0,0,1,18,18Zm-18-18v-22H505.2v22Z"/></g></svg>