<?xml version="1.0" encoding="UTF-8"?>
<svg width="525px" height="641px" viewBox="0 0 525 641" version="1.1" xmlns="http://www.w3.org/2000/svg" xmlns:xlink="http://www.w3.org/1999/xlink">
    <!-- Generator: Sketch 52.1 (67048) - http://www.bohemiancoding.com/sketch -->
    <title>Slice 1</title>
    <desc>Created with Sketch.</desc>
    <g id="Page-1" stroke="none" stroke-width="1" fill="none" fill-rule="evenodd">
        <rect id="Rectangle" stroke="#0D3E32" stroke-width="4" x="2" y="2" width="521" height="637"></rect>
        <path d="M483.215714,440.682759 C492.624638,418.261283 498.552651,393.615824 500.692051,367.431305 C501.766405,358.128567 504.663508,345.479984 504.663508,335.889237 C504.663508,275.684037 483.286508,221.59211 445.866483,187.082203 C414.545675,139.519888 348.622605,100.797189 285.603141,100.797189 C266.50098,97.0378911 253.72058,97.0378911 245.097921,97.4911214 C182.088273,100.803079 144.372793,119.328053 110.452223,155.653571 C57.1369719,188.669095 23.4146876,254.283939 23.4146876,320.238422 C22.7253307,327.719449 19.6727843,342.762043 19.6727843,350.422978 C19.6727843,410.413715 38.8829229,456.619608 76.0388845,494.246743 C108.206001,538.847247 169.808313,580.561813 235.281805,580.561813 C243.647757,581.427116 263.568175,584.694398 272.162915,584.694398 C330.673099,584.694398 376.547491,560.364173 414.545675,527.054166 C427.515608,517.922518 439.167081,507.34131 449.410393,495.510213" id="Oval" stroke="#0D3E32" stroke-width="4" stroke-linecap="round" stroke-linejoin="round"></path>
        <path d="M118.22481,417.6976 C155.900943,471.232533 203.826006,498 262,498 C289.806888,498 315.936029,490.816709 338.633006,478.204542 C362.60024,464.886523 382.740393,445.514961 396.987694,422.155626 C402.882938,412.490007 407.769245,402.141626 411.500266,391.256833" id="Oval" stroke="#0D3E32" stroke-width="4" stroke-linecap="round" stroke-linejoin="round"></path>
        <path d="M159.59273,311.893546 C159.600219,300.693927 160.492683,288.393702 162.784421,269.669354 C166.249544,241.358011 211.516344,234.412416 298.584819,248.832567 C335.197384,230.712351 356.079359,233.430251 361.230742,256.986266 C362.968519,264.932698 365.51818,277.982336 368.176083,293.555136" id="Path" stroke="#0D3E32" stroke-width="4" stroke-linecap="round" stroke-linejoin="round"></path>
        <path d="M174.55562,357.769855 C155.352469,353.204727 147.750751,343.693844 151.750464,329.237205 C155.20584,316.748034 162.413356,306.142637 173.373015,297.421015" id="Path-4" stroke="#0D3E32" stroke-width="4" stroke-linecap="round" stroke-linejoin="round"></path>
        <path d="M177.617386,412.256871 C179.403744,426.297667 184.199488,436.826549 192.004616,443.843519 C200.936935,451.873855 211.761333,451.215586 224.477811,441.868712" id="Path-7" stroke="#0D3E32" stroke-width="4" stroke-linecap="round" stroke-linejoin="round"></path>
        <path d="M366.444295,390.556301 C362.755696,407.660532 353.474179,416.212648 338.599743,416.212648" id="Path-8" stroke="#0D3E32" stroke-width="4" stroke-linecap="round" stroke-linejoin="round"></path>
        <path d="M176.172242,310.829113 C170.117176,290.316086 176.118965,273.199124 194.177607,259.478228 C212.2157,245.772943 234.629626,244.506538 261.419382,255.67901" id="Path-9" stroke="#0D3E32" stroke-width="4" stroke-linecap="round" stroke-linejoin="round"></path>
        <path d="M346.301552,400.933781 C341.338444,416.325062 330.201484,427.910408 312.890673,435.68982 C298.62659,442.100044 284.058263,442.484542 269.18569,436.843314" id="Path-10" stroke="#0D3E32" stroke-width="4" stroke-linecap="round" stroke-linejoin="round"></path>
        <path d="M381.123252,372.403399 C381.123252,372.403399 367.777497,395.200436 356.487984,395.200436 C348.452949,400.219649 342.952295,402.729255 339.986021,402.729255 C333.311905,402.729255 336.349197,414.692621 303.161944,421.30728 L302.525252,421.166068 C291.775537,427.983873 281.088032,433.073279 270.462738,436.434286 C261.663012,441.830063 251.162964,444.527952 238.962594,444.527952 C226.762223,444.527952 208.287424,436.50613 183.538196,420.462486 C172.863904,408.313316 171.213955,394.404365 178.58835,378.735634 C169.969664,341.941511 170.181894,317.735659 179.225042,306.118078 L183.538196,300.428115 C187.964484,284.571101 197.945583,282.064519 218.038471,273.961423 C247.184796,262.207241 256.141518,256.31641 274.092044,252.952136 C292.042571,249.587862 303.872958,257.072986 308.14895,257.072986 C312.424943,257.072986 352.799942,250.608539 356.487984,266.399 C360.176026,282.189461 364.462735,285.735681 366.613119,290.426225 C372.487861,300.135982 381.123252,307.602282 381.123252,311.402614 C381.123252,315.202946 382.347913,325.99285 384.797237,343.772326 C390.097221,357.23617 387.788872,363.09013 382.488887,369.516506 L381.123252,372.403399 Z" id="Path-11" stroke="#0D3E32" stroke-width="4" stroke-linecap="round" stroke-linejoin="round"></path>
        <path d="M240.837986,291.764021 C217.561985,302.038626 207.274167,320.005558 209.974534,345.664818 C214.025083,384.153708 256.854378,384.849858 274.116903,381.24524 C291.379428,377.640623 314.870137,358.581983 311.448848,323.851309 C309.167988,300.697526 292.305797,288.078475 260.862275,285.994156" id="Path-17" stroke="#0D3E32" stroke-width="4" stroke-linecap="round" stroke-linejoin="round"></path>
        <path d="M172.766752,321.901581 C166.882653,327.09281 162.639166,329.688424 160.036294,329.688424 C157.433421,329.688424 157.433421,331.6202 160.036294,335.483752 C160.987107,338.557844 160.987107,340.971726 160.036294,342.725399 C159.085481,344.479072 162.906321,344.479072 171.498815,342.725399" id="Path-18" stroke="#0D3E32" stroke-width="4" stroke-linecap="round" stroke-linejoin="round"></path>
        <path d="M161.364529,329.847545 C162.137798,335.641197 162.524432,340.368465 162.524432,344.029347" id="Path-19" stroke="#0D3E32" stroke-width="4" stroke-linecap="round" stroke-linejoin="round"></path>
        <path d="M195.277731,427.943589 C196.007094,436.094943 201.372046,438.812061 211.372587,436.094943" id="Path-20" stroke="#0D3E32" stroke-width="4" stroke-linecap="round" stroke-linejoin="round"></path>
        <path d="M161.937581,353 C159.730158,361.795825 159.730158,372.140891 161.937581,384.035198 C165.248717,401.876657 148.899282,448.0537 191.028844,448.0537" id="Path-21" stroke="#0D3E32" stroke-width="4" stroke-linecap="round" stroke-linejoin="round"></path>
        <path d="M190.86987,447.726169 C193.282699,449.711686 196.587793,450.373525 200.785151,449.711686" id="Path-22" stroke="#0D3E32" stroke-width="4" stroke-linecap="round" stroke-linejoin="round"></path>
        <path d="M381.059266,372.145642 C382.127277,414.100693 378.764902,436.437273 370.972143,439.155382 C359.283003,443.232545 337.821492,446.586444 290.085507,440.879066" id="Path-23" stroke="#0D3E32" stroke-width="4" stroke-linecap="round" stroke-linejoin="round"></path>
        <path d="" id="Path-12" stroke="#0D3E32" stroke-width="4" stroke-linecap="round" stroke-linejoin="round"></path>
        <path d="M104.677999,339.638149 C106.487006,268.211502 138.460112,219.793721 200.597316,194.384807 C262.734521,168.975894 321.893141,181.680351 378.073177,232.498178" id="Path-13" stroke="#0D3E32" stroke-width="4" stroke-linecap="round" stroke-linejoin="round"></path>
        <path d="M501.951235,634.633183 C490.205667,602.529897 465.344296,500.630165 465.344296,498.425135 C465.344296,496.955116 465.344296,495.194365 465.344296,493.142883 C471.270593,490.891579 475.496515,484.067112 478.022062,472.669483 C483.275889,468.532056 483.042608,458.747646 483.042608,445.680553 C483.042608,436.969158 473.821063,411.003149 455.377974,367.782525 C454.242856,366.937825 453.675298,367.787644 453.675298,370.331982 C453.675298,376.056741 466.126485,435.362273 463.253279,435.362273 C460.772296,435.362273 459.09061,433.8127 458.208223,430.713554 C456.884641,426.064835 451.502192,406.621113 442.780274,371.535113 L440.239388,369.408451 C444.879007,412.263028 447.977839,437.052745 449.535885,443.777604 L450.12992,444.58534 C452.501036,447.416496 453.093816,449.344832 451.908257,450.37035 L451.546059,450.965706 C451.224531,453.88001 450.052999,455.337162 448.03146,455.337162 C446.009922,455.337162 444.463823,454.184954 443.393161,451.880537 C441.03968,451.14785 439.862939,450.310864 439.862939,449.369581 C439.862939,448.428298 440.441579,446.73281 441.598858,444.283117 C435.551478,400.168793 431.826218,376.991502 430.423077,374.751245 C429.019937,372.510988 427.909948,371.301385 427.09311,371.122434 C428.300989,410.916585 429.157953,432.281135 429.664003,435.216087 C430.423077,439.618514 429.067906,440.855989 427.750259,440.855989 C426.432612,440.855989 425.686215,444.051962 422.157777,420.307313 C419.805485,404.477547 417.726017,389.986434 415.919375,376.833974 L413.001745,374.021818 C408.91869,420.804918 409.891233,450.559907 415.919375,463.286787 C421.947516,476.013666 426.782084,481.568944 430.423077,479.95262 C432.828667,487.578829 439.869661,493.001324 451.546059,496.220106 L453.045764,499.12096 C469.696629,583.302674 478.022062,623.077158 478.022062,632.645886" id="Path-14" stroke="#0D3E32" stroke-width="4" stroke-linecap="round" stroke-linejoin="round"></path>
        <path d="M389.151552,247.649479 C412.873606,286.232093 422.847141,323.774482 419.072155,360.276646" id="Path-15" stroke="#0D3E32" stroke-width="4" stroke-linecap="round" stroke-linejoin="round"></path>
        <path d="M249.469381,353.046639 C249.988277,352.747794 250.507173,352.44895 251.02607,352.150105" id="Path-16" stroke="#0D3E32" stroke-width="4" stroke-linecap="round" stroke-linejoin="round"></path>
        <polyline id="Path-24" stroke="#0D3E32" stroke-width="4" stroke-linecap="round" stroke-linejoin="round" points="254.852948 336.147421 255.884764 336.147421 256.797942 336.147421 257.283355 336.147421 257.422044 336.147421 257.560733 336.147421 257.699423 336.147421 257.768767 336.147421 257.838112 336.147421 257.907457 336.147421"></polyline>
        <path d="M234.130583,351.844385 C235.040419,351.386822 235.950254,350.929258 236.86009,350.471695" id="Path-30" stroke="#0D3E32" stroke-width="4" stroke-linecap="round" stroke-linejoin="round"></path>
        <path d="M238.665559,358.280074 C239.274901,358.303189 239.884243,358.326304 240.493585,358.349419" id="Path-31" stroke="#0D3E32" stroke-width="4" stroke-linecap="round" stroke-linejoin="round"></path>
        <path d="M283.98106,383.78221 C284.982798,383.655774 285.984537,383.529339 286.986275,383.402903" id="Path-32" stroke="#0D3E32" stroke-width="4" stroke-linecap="round" stroke-linejoin="round"></path>
        <polyline id="Path-33" stroke="#0D3E32" stroke-width="4" stroke-linecap="round" stroke-linejoin="round" points="339.674036 372.375426 339.674036 370.474714 339.674036 369.96173 339.674036 369.740328"></polyline>
        <path d="M338.310536,361.004568 C339.270222,361.567124 340.229908,362.129679 341.189594,362.692234" id="Path-34" stroke="#0D3E32" stroke-width="4" stroke-linecap="round" stroke-linejoin="round"></path>
        <path d="M342.691783,361.089787 C343.829148,361.305897 344.966512,361.522008 346.103876,361.738118" id="Path-35" stroke="#0D3E32" stroke-width="4" stroke-linecap="round" stroke-linejoin="round"></path>
        <polyline id="Path-36" stroke="#0D3E32" stroke-width="4" stroke-linecap="round" stroke-linejoin="round" points="317.742734 344.157151 317.742734 342.711773 317.742734 342.560552 317.742734 342.258109 317.742734 342.187929 317.742734 341.907208 317.742734 341.464404"></polyline>
        <path d="M292.670869,325.021358 C293.541994,324.968723 294.413119,324.916088 295.284245,324.863453" id="Path-37" stroke="#0D3E32" stroke-width="4" stroke-linecap="round" stroke-linejoin="round"></path>
        <path d="M253.068367,349.483324 C253.86597,350.500937 254.663573,351.518549 255.461177,352.536161" id="Path-38" stroke="#0D3E32" stroke-width="4" stroke-linecap="round" stroke-linejoin="round"></path>
        <path d="M245.381132,349.982105 C246.146987,349.684674 246.912842,349.387244 247.678697,349.089814" id="Path-39" stroke="#0D3E32" stroke-width="4" stroke-linecap="round" stroke-linejoin="round"></path>
        <polyline id="Path-40" stroke="#0D3E32" stroke-width="4" stroke-linecap="round" stroke-linejoin="round" points="242.45111 345.519816 244.341797 345.519816 244.561528 345.519816 244.630873 345.519816 244.700218 345.519816 244.838907 345.519816 244.908252 345.519816 244.977596 345.519816 245.046941 345.519816 245.116286 345.519816 245.254975 345.519816 245.32432 345.519816"></polyline>
        <path d="M270.538216,374.026331 C270.65574,373.279971 270.773264,372.53361 270.890788,371.78725" id="Path-41" stroke="#0D3E32" stroke-width="4" stroke-linecap="round" stroke-linejoin="round"></path>
        <polyline id="Path-42" stroke="#0D3E32" stroke-width="4" stroke-linecap="round" stroke-linejoin="round" points="268.473897 397.485557 269.716485 397.485557 270.113026 397.485557 270.601913 397.485557 270.846356 397.485557 271.487341 397.485557 271.731785 397.485557 271.976228 397.485557 272.220671 397.485557 272.465115 397.485557 272.57783 397.485557 272.803261 397.485557 272.915977 397.485557"></polyline>
        <path d="M321.516754,309.676061 C322.551112,310.22108 323.585469,310.766098 324.619827,311.311116" id="Path-43" stroke="#0D3E32" stroke-width="4" stroke-linecap="round" stroke-linejoin="round"></path>
        <path d="M270.910839,345.63177 C271.442482,346.770248 271.974125,347.908726 272.505767,349.047204" id="Path-25" stroke="#0D3E32" stroke-width="4" stroke-linecap="round" stroke-linejoin="round"></path>
        <path d="M284.442244,358.676091 C284.465359,357.750381 284.488474,356.824671 284.511589,355.898961" id="Path-26" stroke="#0D3E32" stroke-width="4" stroke-linecap="round" stroke-linejoin="round"></path>
        <path d="M261.473278,366.298158 C262.463876,366.971832 263.454475,367.645506 264.445074,368.31918" id="Path-27" stroke="#0D3E32" stroke-width="4" stroke-linecap="round" stroke-linejoin="round"></path>
        <path d="M233.345233,332.086997 C234.014451,332.038261 234.68367,331.989525 235.352888,331.940789" id="Path-28" stroke="#0D3E32" stroke-width="4" stroke-linecap="round" stroke-linejoin="round"></path>
        <polyline id="Path-29" stroke="#0D3E32" stroke-width="4" stroke-linecap="round" stroke-linejoin="round" points="231.233145 348.735571 234.252563 348.735571 234.321907 348.735571 234.472294 348.735571 234.541638 348.735571 234.692024 348.735571 234.830714 348.735571 234.900058 348.735571 235.038748 348.735571 235.108092 348.735571 235.246782 348.735571 235.316127 348.735571"></polyline>
        <path d="M80.8143094,367.660877 C69.6390751,358.704633 74.2567883,357.260873 66.6292716,364.586113" id="Path-44" stroke="#0D3E32" stroke-width="3" stroke-linecap="round" stroke-linejoin="round"></path>
        <path d="M150.30274,397.142945 C151.05643,398.027961 151.793551,398.63196 152.514104,398.954943 C153.963383,399.604572 152.831624,401.046418 149.118829,403.280481 C146.570962,406.533306 145.297029,408.98249 145.297029,410.628033" id="Path-45" stroke="#0D3E32" stroke-width="3" stroke-linecap="round" stroke-linejoin="round"></path>
        <path d="M137.454292,388.72746 C132.657783,391.961125 128.870414,393.577957 126.092185,393.577957" id="Path-46" stroke="#0D3E32" stroke-width="3" stroke-linecap="round" stroke-linejoin="round"></path>
        <path d="M125.18738,394.240728 C124.287186,394.78133 123.837088,396.12313 123.837088,398.266127 C123.837088,400.409124 123.298913,402.340054 122.222561,404.058916 C123.298913,403.801475 123.837088,404.105867 123.837088,404.972092 C123.837088,405.838317 123.793049,406.695201 123.704971,407.542742 C125.662834,406.62071 126.81137,406.390202 127.150581,406.851218 C127.489792,407.312234 127.654787,407.927691 127.645567,408.697588 C128.732109,407.466675 129.552475,406.851218 130.106665,406.851218 C130.660855,406.851218 130.660855,407.466675 130.106665,408.697588 C131.729685,407.560091 132.723175,407.175143 133.087135,407.542742 C133.451095,407.910342 133.662434,408.295291 133.721153,408.697588 C136.118437,405.828126 137.570881,404.586294 138.078484,404.972092 C138.839888,405.550789 143.120059,409.735966 143.120059,411.056413" id="Path-47" stroke="#0D3E32" stroke-width="3" stroke-linecap="round" stroke-linejoin="round"></path>
        <path d="" id="Path-48" stroke="#0D3E32" stroke-width="3" stroke-linecap="round" stroke-linejoin="round"></path>
        <path d="M142.625073,388.400624 C145.616826,392.573063 148.55544,395.09567 151.440915,395.968447 C154.326391,396.841223 155.962634,397.961856 156.349645,399.330346 C157.836544,398.67449 158.759911,398.67449 159.119746,399.330346 C159.659499,400.314131 158.783447,397.821368 160.051848,397.821368 C161.320249,397.821368 159.180891,395.968447 160.657477,395.968447 C161.641868,395.968447 162.055006,395.968447 161.89689,395.968447 C160.921617,395.151603 160.60559,394.64577 160.94881,394.450947 C161.292029,394.256125 161.73843,394.099278 162.28801,393.980406 C161.177041,391.16183 161.046668,389.648646 161.89689,389.440853 C163.172224,389.129165 155.102329,386.251318 155.102329,384.645897 C155.102329,383.575616 154.440553,383.312049 153.117001,383.855198 C151.66331,383.06793 151.104615,382.254352 151.440915,381.414463 C151.777216,380.574574 149.817388,381.843902 145.561432,385.222448" id="Path-49" stroke="#0D3E32" stroke-width="3" stroke-linecap="round" stroke-linejoin="round"></path>
        <path d="M136.319449,389.271349 C128.779209,387.231112 124.349143,386.551033 123.029252,387.231112" id="Path-50" stroke="#0D3E32" stroke-width="3" stroke-linecap="round" stroke-linejoin="round"></path>
        <path d="M152.870594,383.472546 C154.607798,382.063884 155.791902,381.359553 156.422906,381.359553 C157.369411,381.359553 155.289708,380.433982 155.289708,379.298382 C155.289708,378.162782 148.620243,371.467235 143.707888,372.945334 C140.432984,373.930734 138.387027,375.073656 137.570017,376.374099 C136.09043,377.075113 135.063849,377.075113 134.490271,376.374099 C133.916694,375.673086 134.943276,378.258645 137.570017,384.130775" id="Path-51" stroke="#0D3E32" stroke-width="3" stroke-linecap="round" stroke-linejoin="round"></path>
        <path d="M139.48053,374.685627 L138.755379,373.300188 C138.241288,374.100725 137.730857,374.100725 137.224086,373.300188 C136.717316,372.499651 136.398611,371.872194 136.267972,371.417816 C134.841236,371.749104 134.127868,372.376562 134.127868,373.300188 C134.127868,374.223814 133.435891,373.596357 132.051939,371.417816 C131.726828,372.5064 131.148561,372.778546 130.317137,372.234254" id="Path-52" stroke="#0D3E32" stroke-width="3" stroke-linecap="round" stroke-linejoin="round"></path>
        <path d="M123.339492,387.022799 C122.114091,385.824395 121.030655,385.225194 120.089183,385.225194" id="Path-53" stroke="#0D3E32" stroke-width="3" stroke-linecap="round" stroke-linejoin="round"></path>
        <path d="M126.554109,376.473623 L124.043365,374.062403 C124.88028,374.131955 125.298737,373.486194 125.298737,372.125121" id="Path-54" stroke="#0D3E32" stroke-width="3" stroke-linecap="round" stroke-linejoin="round"></path>
        <path d="M130.061121,373.708235 C128.680829,373.457024 127.990683,372.830024 127.990683,371.827236 C127.990683,370.323055 127.986565,374.301603 126.695845,373.708235 C125.835365,373.312657 125.432465,372.952278 125.487146,372.627097" id="Path-55" stroke="#0D3E32" stroke-width="3" stroke-linecap="round" stroke-linejoin="round"></path>
        <path d="M123.255412,375.017488 C122.705171,375.235525 122.430051,375.822601 122.430051,376.778715 C122.430051,377.734829 121.831192,378.193668 120.633475,378.155232 C121.210713,379.558631 121.043124,380.260331 120.130709,380.260331 C118.762085,380.260331 124.226626,381.528057 122.430051,382.487947 C121.232334,383.127873 120.290633,383.447837 119.604949,383.447837 C120.625811,383.542098 120.968653,384.0968 120.633475,385.111942" id="Path-56" stroke="#0D3E32" stroke-width="3" stroke-linecap="round" stroke-linejoin="round"></path>
        <path d="M141.523698,387.001299 C141.463304,393.826151 144.007891,398.828291 146.776122,398.828291 C149.544352,398.828291 151.530565,396.613781 149.012841,394.003373 L149.012841,394.947929 C148.960818,397.178033 147.859419,397.775531 146.067024,396.741055 C144.27463,395.706579 143.627884,393.367513 143.768405,389.723227" id="Path-57" stroke="#0D3E32" stroke-width="3" stroke-linecap="round" stroke-linejoin="round"></path>
        <path d="M140.697715,385.729207 C137.407288,390.489616 133.930631,393.099439 132.140742,393.681657 C130.350852,394.263875 127.659808,394.454535 127.22162,396.109847 C126.783433,397.765158 128.12174,398.241475 129.404576,398.241475 C130.552526,398.241475 131.39193,397.040526 130.508972,396.731313 C129.9717,397.195132 128.845121,396.917238 128.845121,396.453419 C128.845121,395.757691 132.114377,395.656843 133.011247,395.056099 C136.084202,393.496195 139.882783,389.562357 142.006493,386.271825" id="Path-59" stroke="#0D3E32" stroke-width="3" stroke-linecap="round" stroke-linejoin="round"></path>
        <path d="M137.800664,387.107187 C140.849382,385.239248 142.741533,385.371033 143.477117,387.502543" id="Path-60" stroke="#0D3E32" stroke-width="3" stroke-linecap="round" stroke-linejoin="round"></path>
        <path d="M131.820975,381.817424 C133.452182,384.964225 135.222147,386.874941 137.13087,387.549572" id="Path-63" stroke="#0D3E32" stroke-width="3" stroke-linecap="round" stroke-linejoin="round"></path>
        <path d="M144.545387,380.175586 C144.156024,383.586835 143.642742,385.529998 143.005541,386.005075" id="Path-64" stroke="#0D3E32" stroke-width="3" stroke-linecap="round" stroke-linejoin="round"></path>
        <path d="M126.421614,376.309878 C124.625713,375.876041 123.50813,375.494886 123.068867,375.166415" id="Path-58" stroke="#0D3E32" stroke-width="3" stroke-linecap="round" stroke-linejoin="round"></path>
        <path d="M258.490366,328.43061 C259.712378,328.157329 263.116421,327.7294 264.153869,328.43061 L264.153869,325.184926 C269.700512,328.933898 273.451182,334.912403 278.838866,338.886431 C284.526001,343.081339 299.4077,346.525352 300.159627,356.781816 C300.244486,357.939314 300.148194,360.825108 299.216245,360.13339 C295.878684,357.656159 294.786985,352.876927 291.489495,350.346601 C286.831826,346.772543 279.85422,346.235669 275.865928,342.215544 C271.061899,337.37317 265.587714,333.398022 259.443375,330.2901 L258.490366,328.43061 Z" id="Path-61" stroke="#0D3E32" stroke-width="3" stroke-linecap="round" stroke-linejoin="round"></path>
    </g>
</svg>